<svg width="39" height="39" viewBox="0 0 39 39" fill="none" xmlns="http://www.w3.org/2000/svg">
<path d="M13.0359 20.9446H13.2355C14.3331 21.0444 15.1313 21.8426 15.1313 22.9402C15.1313 23.5389 15.5304 23.938 16.1291 23.938C16.7278 23.938 17.1269 23.5389 17.1269 22.9402C17.1269 21.0444 15.8298 19.5477 14.1335 19.0488V17.9512C14.1335 17.3525 13.7344 16.9534 13.1357 16.9534C12.537 16.9534 12.1379 17.3525 12.1379 17.9512V19.0488C10.4417 19.4479 9.14453 21.0444 9.14453 22.9402C9.14453 25.1353 10.9406 26.9314 13.1357 26.9314C14.2333 26.9314 15.1313 27.8294 15.1313 28.9269C15.1313 30.0245 14.2333 30.9225 13.1357 30.9225C12.0381 30.9225 11.1401 30.0245 11.1401 28.9269C11.1401 28.3283 10.741 27.9292 10.1423 27.9292C9.54365 27.9292 9.14453 28.3283 9.14453 28.9269C9.14453 30.8228 10.4417 32.3194 12.1379 32.8183V34.0157C12.1379 34.6144 12.537 35.0135 13.1357 35.0135C13.7344 35.0135 14.1335 34.6144 14.1335 34.0157V32.8183C15.8298 32.4192 17.1269 30.8228 17.1269 28.9269C17.1269 26.7318 15.3309 24.9358 13.1357 24.9358C12.0381 24.9358 11.1401 24.0378 11.1401 22.9402C11.1401 21.8426 11.9384 21.0444 13.0359 20.9446Z" fill="#D9D9D9"/>
<path d="M36.6851 25.4346C36.8847 24.9357 37.0842 24.4368 37.0842 23.9379V21.9423C37.0842 21.1441 36.7849 20.4456 36.286 19.9467C36.7849 19.4478 37.0842 18.7494 37.0842 17.9511V15.9556C37.0842 15.1573 36.7849 14.4589 36.286 13.96C36.7849 13.4611 37.0842 12.7626 37.0842 11.9644V9.96879C37.0842 9.17056 36.7849 8.4721 36.286 7.97321C36.7849 7.47431 37.0842 6.77585 37.0842 5.97762V3.98203C37.0842 2.28578 35.7871 0.988647 34.0908 0.988647H22.1173C20.4211 0.988647 19.1239 2.28578 19.1239 3.98203V5.97762C19.1239 6.77585 19.4233 7.47431 19.9222 7.97321C19.4233 8.4721 19.1239 9.17056 19.1239 9.96879V11.9644C19.1239 12.7626 19.4233 13.4611 19.9222 13.96C19.7226 14.1595 19.6228 14.3591 19.5231 14.6584C17.6272 13.5609 15.5319 12.9622 13.2369 12.9622C6.05283 12.9622 0.265625 18.7494 0.265625 25.9335C0.265625 33.1176 6.05283 38.9048 13.2369 38.9048C15.5319 38.9048 17.727 38.3061 19.5231 37.2086C20.0219 38.2064 21.0197 38.9048 22.2171 38.9048H34.1906C35.8869 38.9048 37.184 37.6077 37.184 35.9114V33.9158C37.184 33.417 36.9844 32.9181 36.7849 32.4192C37.4833 31.9203 38.082 31.0222 38.082 29.9247V27.9291C38.082 26.8315 37.4833 25.9335 36.6851 25.4346ZM36.0864 29.9247C36.0864 30.5233 35.6873 30.9225 35.0886 30.9225H25.1107C25.6096 29.7251 25.9089 28.3282 26.1085 26.9313H35.0886C35.6873 26.9313 36.0864 27.3304 36.0864 27.9291V29.9247ZM35.0886 21.9423V23.9379C35.0886 24.5366 34.6895 24.9357 34.0908 24.9357H26.1085C26.0087 23.5388 25.7094 22.1419 25.1107 20.9445H34.0908C34.5897 20.9445 35.0886 21.4434 35.0886 21.9423ZM21.1195 9.96879C21.1195 9.4699 21.5186 8.971 22.1173 8.971H34.0908C34.5897 8.971 35.0886 9.4699 35.0886 9.96879V11.9644C35.0886 12.5631 34.6895 12.9622 34.0908 12.9622H22.1173C21.5186 12.9622 21.1195 12.5631 21.1195 11.9644V9.96879ZM21.1195 3.98203C21.1195 3.38335 21.5186 2.98424 22.1173 2.98424H34.0908C34.6895 2.98424 35.0886 3.38335 35.0886 3.98203V5.97762C35.0886 6.47651 34.6895 6.97541 34.0908 6.97541H22.1173C21.6184 6.97541 21.1195 6.47651 21.1195 5.97762V3.98203ZM22.1173 14.9578H34.0908C34.6895 14.9578 35.0886 15.3569 35.0886 15.9556V17.9511C35.0886 18.45 34.6895 18.9489 34.0908 18.9489H24.1129C23.3147 17.7516 22.3169 16.654 21.2193 15.756C21.2193 15.2571 21.6184 14.9578 22.1173 14.9578ZM2.16143 25.9335C2.16143 19.847 7.05062 14.9578 13.1372 14.9578C19.2237 14.9578 24.1129 19.847 24.1129 25.9335C24.1129 32.02 19.2237 36.9092 13.1372 36.9092C7.05062 36.9092 2.16143 32.02 2.16143 25.9335ZM35.0886 35.9114C35.0886 36.5101 34.6895 36.9092 34.0908 36.9092H22.1173C21.6184 36.9092 21.2193 36.6099 21.1195 36.111C22.2171 35.213 23.2149 34.1154 24.0131 32.9181H34.0908C34.5897 32.9181 35.0886 33.417 35.0886 33.9158V35.9114Z" fill="#D9D9D9"/>
</svg>
