<svg width="57" height="57" viewBox="0 0 57 57" fill="none" xmlns="http://www.w3.org/2000/svg">
<path d="M52.2743 36.6746C52.6218 35.9882 52.5523 35.7362 52.5523 33.5293C52.5523 32.8772 52.2933 32.2518 51.8321 31.7907C51.371 31.3296 50.7456 31.0705 50.0935 31.0705H49.3376C56.8965 25.7619 53.1953 13.6937 43.8639 13.6937C42.2508 13.6931 40.6638 14.1008 39.2508 14.8788C37.8377 15.6568 36.6445 16.7798 35.7824 18.1432C34.9203 19.5066 34.4174 21.066 34.3204 22.6762C34.2233 24.2863 34.5354 25.8948 35.2276 27.3519C37.3389 31.809 40.7795 31.0705 35.8966 31.0705C35.2445 31.0705 34.6191 31.3296 34.158 31.7907C33.6968 32.2518 33.4378 32.8772 33.4378 33.5293C33.4378 35.267 33.1598 36.7267 34.5847 37.6303C34.4044 37.9734 34.3091 38.3548 34.3066 38.7424C34.3066 40.8884 34.3066 40.984 34.4283 41.4966C34.0941 41.4677 33.7574 41.5059 33.4381 41.6088C33.1189 41.7118 32.8234 41.8775 32.569 42.0961C32.3146 41.8775 32.019 41.7118 31.6998 41.6088C31.3805 41.5059 31.0439 41.4677 30.7096 41.4966C30.866 40.984 30.8313 40.9493 30.8313 38.7424C30.8288 38.3548 30.7335 37.9734 30.5532 37.6303C31.9781 36.7614 31.7001 35.2931 31.7001 33.5293C31.7001 32.8772 31.4411 32.2518 30.9799 31.7907C30.5188 31.3296 29.8934 31.0705 29.2413 31.0705C28.746 31.0705 29.0936 31.1835 29.0936 30.3494C29.0936 28.1599 29.0936 28.0643 28.9546 27.517C29.4884 27.3869 29.9633 27.0818 30.3034 26.6503C30.6436 26.2188 30.8294 25.6858 30.8313 25.1363V23.1032C30.8313 22.4511 30.5722 21.8257 30.1111 21.3646C29.65 20.9035 29.0246 20.6444 28.3724 20.6444H26.7477C34.4109 15.2924 30.5793 3.26758 21.274 3.26758C19.6609 3.26697 18.0739 3.67466 16.6609 4.45267C15.2478 5.23068 14.0546 6.35368 13.1926 7.71708C12.3305 9.08047 11.8275 10.6399 11.7305 12.25C11.6334 13.8602 11.9456 15.4687 12.6377 16.9258C14.6534 21.1744 17.7118 20.6444 14.1756 20.6444C13.5234 20.6444 12.898 20.9035 12.4369 21.3646C11.9758 21.8257 11.7167 22.4511 11.7167 23.1032C11.7167 25.2927 11.6733 25.3883 11.8558 25.9357C11.3219 26.0657 10.8471 26.3709 10.5069 26.8024C10.1667 27.2339 9.98092 27.7668 9.97906 28.3163V30.3494C9.9797 30.6954 10.0529 31.0375 10.1938 31.3535C10.3348 31.6696 10.5404 31.9526 10.7975 32.1842C11.0545 32.4159 11.3573 32.5911 11.6862 32.6986C12.0152 32.8061 12.363 32.8434 12.7072 32.8082C11.1829 32.8338 9.68626 33.2195 8.33939 33.9337C6.99251 34.6479 5.83358 35.6704 4.95716 36.9178C4.83977 37.107 4.79945 37.334 4.84454 37.552C4.88963 37.77 5.01668 37.9623 5.19947 38.0894C5.38226 38.2165 5.60685 38.2685 5.8269 38.2348C6.04695 38.2011 6.24567 38.0843 6.38206 37.9083C7.39113 36.4531 8.86425 35.3835 10.5603 34.8746C12.2564 34.3656 14.0751 34.4474 15.7186 35.1066C17.3622 35.7657 18.7333 36.9632 19.6077 38.5031C20.4821 40.043 20.8079 41.8341 20.5318 43.5832C20.2558 45.3324 19.3942 46.9361 18.088 48.1318C16.7819 49.3276 15.1086 50.0446 13.3419 50.1655C11.5752 50.2865 9.81982 49.8042 8.36292 48.7976C6.90603 47.791 5.83393 46.3197 5.32207 44.6245C5.25755 44.4032 5.1078 44.2167 4.90575 44.1059C4.70371 43.9951 4.46592 43.9691 4.24471 44.0336C4.02349 44.0982 3.83697 44.2479 3.72617 44.45C3.61537 44.652 3.58938 44.8898 3.6539 45.111C4.2761 47.2102 5.60018 49.0321 7.40469 50.272C9.20919 51.5119 11.3847 52.0946 13.5674 51.9227C13.719 52.4264 14.0293 52.8677 14.452 53.1808C14.8747 53.4939 15.3872 53.6622 15.9133 53.6604H30.1101C30.7622 53.6604 31.3877 53.4014 31.8488 52.9402C32.3099 52.4791 32.569 51.8537 32.569 51.2016C32.569 49.099 32.6472 48.7601 32.2909 48.0564C32.3892 47.9946 32.4822 47.9249 32.569 47.8479C33.0105 48.231 33.5744 48.4436 34.1589 48.4474C34.6542 48.4474 34.3066 48.3344 34.3066 49.1685V51.2016C34.3066 51.8537 34.5657 52.4791 35.0268 52.9402C35.4879 53.4014 36.1133 53.6604 36.7655 53.6604H50.9623C51.6145 53.6604 52.2399 53.4014 52.701 52.9402C53.1621 52.4791 53.4212 51.8537 53.4212 51.2016V49.1685C53.4212 48.5164 53.1621 47.891 52.701 47.4299C52.2399 46.9687 51.6145 46.7097 50.9623 46.7097C50.4671 46.7097 50.8146 46.8226 50.8146 45.9885C50.8146 43.8425 50.8146 43.7469 50.693 43.2343C51.037 43.2682 51.3842 43.2299 51.7126 43.1219C52.0409 43.0139 52.3432 42.8386 52.5999 42.6072C52.8567 42.3758 53.0623 42.0934 53.2037 41.778C53.3451 41.4626 53.4192 41.1211 53.4212 40.7755C53.4212 39.003 53.6992 37.5781 52.2743 36.6746ZM36.8002 26.6047C36.1753 25.2476 35.9407 23.7434 36.1225 22.2605C37.3041 13.9022 48.5991 13.0942 51.2317 20.6444C51.8784 22.5285 51.7816 24.5884 50.9611 26.4036C50.1407 28.2188 48.6584 29.6525 46.8169 30.4119C44.9753 31.1714 42.9133 31.1994 41.0518 30.4902C39.1903 29.7811 37.6697 28.3882 36.8002 26.596V26.6047ZM35.1755 33.5554C35.1755 33.3642 35.2515 33.1807 35.3867 33.0455C35.5219 32.9102 35.7054 32.8343 35.8966 32.8343H50.0935C50.2847 32.8343 50.4682 32.9102 50.6034 33.0455C50.7387 33.1807 50.8146 33.3642 50.8146 33.5554V35.5885C50.8146 35.7798 50.7387 35.9632 50.6034 36.0984C50.4682 36.2337 50.2847 36.3096 50.0935 36.3096H35.8966C35.7054 36.3096 35.5219 36.2337 35.3867 36.0984C35.2515 35.9632 35.1755 35.7798 35.1755 35.5885V33.5554ZM31.7001 43.9815V46.0146C31.7001 46.2059 31.6241 46.3893 31.4889 46.5245C31.3537 46.6598 31.1702 46.7357 30.979 46.7357H21.274C21.8043 45.7215 22.1374 44.6159 22.2558 43.4776C22.2558 43.1561 21.3261 43.2604 30.9442 43.2604C31.0396 43.2557 31.135 43.2701 31.2249 43.3026C31.3147 43.3351 31.3972 43.3852 31.4675 43.4498C31.5379 43.5145 31.5946 43.5925 31.6346 43.6793C31.6745 43.7661 31.6968 43.86 31.7001 43.9555V43.9815ZM22.3166 41.4966C22.1942 40.2822 21.8403 39.1025 21.274 38.0213H28.3377C28.529 38.0213 28.7124 38.0972 28.8476 38.2325C28.9829 38.3677 29.0588 38.5511 29.0588 38.7424V40.7755C29.0588 40.9667 28.9829 41.1502 28.8476 41.2854C28.7124 41.4206 28.529 41.4966 28.3377 41.4966H22.3166ZM14.2103 16.1786C13.5855 14.8215 13.3508 13.3173 13.5326 11.8344C14.7143 3.4761 26.0092 2.66808 28.6418 10.2183C29.2885 12.1024 29.1917 14.1623 28.3713 15.9775C27.5508 17.7927 26.0685 19.2264 24.227 19.9858C22.3854 20.7453 20.3235 20.7733 18.462 20.0641C16.6005 19.355 15.0798 17.9621 14.2103 16.1699V16.1786ZM13.4544 23.1293C13.4544 22.938 13.5304 22.7546 13.6656 22.6194C13.8009 22.4841 13.9843 22.4082 14.1756 22.4082H28.3724C28.5637 22.4082 28.7471 22.4841 28.8824 22.6194C29.0176 22.7546 29.0936 22.938 29.0936 23.1293V25.1624C29.0936 25.3537 29.0176 25.5371 28.8824 25.6723C28.7471 25.8076 28.5637 25.8835 28.3724 25.8835H14.1756C13.9843 25.8835 13.8009 25.8076 13.6656 25.6723C13.5304 25.5371 13.4544 25.3537 13.4544 25.1624V23.1293ZM11.7167 30.3755V28.3163C11.7167 28.125 11.7927 27.9416 11.928 27.8064C12.0632 27.6711 12.2466 27.5952 12.4379 27.5952H26.6348C26.826 27.5952 27.0094 27.6711 27.1447 27.8064C27.2799 27.9416 27.3559 28.125 27.3559 28.3163V30.3494C27.3559 30.5406 27.2799 30.7241 27.1447 30.8593C27.0094 30.9945 26.826 31.0705 26.6348 31.0705H12.4379C12.2466 31.0705 12.0632 30.9945 11.928 30.8593C11.7927 30.7241 11.7167 30.5406 11.7167 30.3494V30.3755ZM14.5926 32.982C14.9054 32.7213 13.9497 32.8082 29.2413 32.8082C29.4325 32.8082 29.616 32.8842 29.7512 33.0194C29.8864 33.1547 29.9624 33.3381 29.9624 33.5293V35.5624C29.9624 35.7537 29.8864 35.9371 29.7512 36.0724C29.616 36.2076 29.4325 36.2836 29.2413 36.2836H20.1706C18.7526 34.5669 16.7798 33.3992 14.5926 32.982ZM30.8313 51.2016C30.8313 51.3928 30.7553 51.5763 30.6201 51.7115C30.4848 51.8468 30.3014 51.9227 30.1101 51.9227C14.6969 51.9227 15.6265 52.0704 15.3398 51.5752C17.2284 51.0485 18.9109 49.9571 20.1619 48.4474H30.1101C30.3014 48.4474 30.4848 48.5233 30.6201 48.6586C30.7553 48.7938 30.8313 48.9772 30.8313 49.1685V51.2016ZM51.6835 49.1685V51.2016C51.6835 51.3928 51.6075 51.5763 51.4723 51.7115C51.337 51.8468 51.1536 51.9227 50.9623 51.9227H36.7655C36.5742 51.9227 36.3908 51.8468 36.2555 51.7115C36.1203 51.5763 36.0443 51.3928 36.0443 51.2016V49.1685C36.0443 48.9772 36.1203 48.7938 36.2555 48.6586C36.3908 48.5233 36.5742 48.4474 36.7655 48.4474H50.9623C51.1536 48.4474 51.337 48.5233 51.4723 48.6586C51.6075 48.7938 51.6835 48.9772 51.6835 49.1685ZM49.0769 43.9555V45.9885C49.0769 46.1798 49.001 46.3632 48.8657 46.4985C48.7305 46.6337 48.5471 46.7097 48.3558 46.7097H34.1589C33.9684 46.7074 33.7863 46.6307 33.6515 46.496C33.5168 46.3612 33.4401 46.1791 33.4378 45.9885V43.9555C33.4378 43.7642 33.5138 43.5808 33.649 43.4455C33.7843 43.3103 33.9677 43.2343 34.1589 43.2343H48.3558C48.5471 43.2343 48.7305 43.3103 48.8657 43.4455C49.001 43.5808 49.0769 43.7642 49.0769 43.9555ZM51.6835 40.7755C51.6835 40.9667 51.6075 41.1502 51.4723 41.2854C51.337 41.4206 51.1536 41.4966 50.9623 41.4966H36.7655C36.5742 41.4966 36.3908 41.4206 36.2555 41.2854C36.1203 41.1502 36.0443 40.9667 36.0443 40.7755V38.7424C36.0443 38.5511 36.1203 38.3677 36.2555 38.2325C36.3908 38.0972 36.5742 38.0213 36.7655 38.0213H50.9623C51.1536 38.0213 51.337 38.0972 51.4723 38.2325C51.6075 38.3677 51.6835 38.5511 51.6835 38.7424V40.7755Z" fill="#D9D9D9"/>
<path d="M13.0212 44.1027H10.8491C10.6186 44.1027 10.3976 44.1942 10.2347 44.3572C10.0718 44.5201 9.98022 44.7411 9.98022 44.9715C9.98022 45.202 10.0718 45.423 10.2347 45.5859C10.3976 45.7488 10.6186 45.8404 10.8491 45.8404H11.7179V46.7092C11.7179 46.9397 11.8094 47.1606 11.9724 47.3236C12.1353 47.4865 12.3563 47.5781 12.5868 47.5781C12.8172 47.5781 13.0382 47.4865 13.2011 47.3236C13.3641 47.1606 13.4556 46.9397 13.4556 46.7092V45.8404C14.0317 45.7828 14.5613 45.4987 14.9279 45.0506C15.2945 44.6025 15.4681 44.0271 15.4105 43.4511C15.3529 42.875 15.0688 42.3454 14.6207 41.9788C14.1726 41.6122 13.5972 41.4386 13.0212 41.4962C12.4477 41.4962 11.7179 41.6352 11.7179 41.0617C11.7179 40.9465 11.7637 40.836 11.8451 40.7546C11.9266 40.6731 12.0371 40.6273 12.1523 40.6273H14.3244C14.5549 40.6273 14.7759 40.5358 14.9388 40.3728C15.1017 40.2099 15.1933 39.9889 15.1933 39.7585C15.1933 39.5281 15.1017 39.3071 14.9388 39.1441C14.7759 38.9812 14.5549 38.8896 14.3244 38.8896H13.4556V38.0208C13.4556 37.7904 13.3641 37.5694 13.2011 37.4064C13.0382 37.2435 12.8172 37.152 12.5868 37.152C12.3563 37.152 12.1353 37.2435 11.9724 37.4064C11.8094 37.5694 11.7179 37.7904 11.7179 38.0208V38.8896C11.1418 38.9473 10.6122 39.2313 10.2456 39.6794C9.879 40.1275 9.7054 40.7029 9.76301 41.279C9.82062 41.855 10.1047 42.3846 10.5528 42.7512C11.0009 43.1179 11.5763 43.2915 12.1523 43.2339H13.0212C13.1364 43.2339 13.2469 43.2796 13.3284 43.3611C13.4098 43.4426 13.4556 43.5531 13.4556 43.6683C13.4556 43.7835 13.4098 43.894 13.3284 43.9755C13.2469 44.0569 13.1364 44.1027 13.0212 44.1027ZM5.0452 41.4962C5.05986 41.247 5.09767 40.9998 5.15815 40.7577C5.20361 40.5377 5.16213 40.3087 5.0424 40.1186C4.92267 39.9286 4.734 39.7923 4.51597 39.7384C4.29794 39.6844 4.06749 39.717 3.87296 39.8293C3.67843 39.9416 3.53495 40.1248 3.4726 40.3406C3.38403 40.7206 3.32592 41.107 3.29883 41.4962C3.29883 41.7278 3.39082 41.9499 3.55458 42.1136C3.71833 42.2774 3.94043 42.3694 4.17201 42.3694C4.4036 42.3694 4.6257 42.2774 4.78945 42.1136C4.9532 41.9499 5.0452 41.7278 5.0452 41.4962ZM20.8407 11.0867H23.0129C23.2433 11.0867 23.4643 10.9952 23.6272 10.8322C23.7902 10.6693 23.8817 10.4483 23.8817 10.2179C23.8817 9.98742 23.7902 9.76643 23.6272 9.60349C23.4643 9.44055 23.2433 9.34901 23.0129 9.34901H22.144V8.48017C22.144 8.24974 22.0525 8.02875 21.8895 7.86581C21.7266 7.70287 21.5056 7.61133 21.2752 7.61133C21.0447 7.61133 20.8237 7.70287 20.6608 7.86581C20.4979 8.02875 20.4063 8.24974 20.4063 8.48017V9.39245C19.8784 9.49965 19.4092 9.79916 19.0897 10.2329C18.7703 10.6665 18.6233 11.2035 18.6775 11.7394C18.7316 12.2753 18.9829 12.772 19.3827 13.1331C19.7824 13.4941 20.3021 13.6938 20.8407 13.6932C21.4142 13.6932 22.144 13.5542 22.144 14.1276C22.144 14.2429 22.0982 14.3534 22.0168 14.4348C21.9353 14.5163 21.8248 14.5621 21.7096 14.5621H19.5375C19.3071 14.5621 19.0861 14.6536 18.9231 14.8165C18.7602 14.9795 18.6686 15.2005 18.6686 15.4309C18.6686 15.6613 18.7602 15.8823 18.9231 16.0453C19.0861 16.2082 19.3071 16.2997 19.5375 16.2997H20.4063V17.1686C20.4063 17.399 20.4979 17.62 20.6608 17.783C20.8237 17.9459 21.0447 18.0374 21.2752 18.0374C21.5056 18.0374 21.7266 17.9459 21.8895 17.783C22.0525 17.62 22.144 17.399 22.144 17.1686V16.2997C22.7201 16.2421 23.2497 15.958 23.6163 15.51C23.9829 15.0619 24.1565 14.4865 24.0989 13.9104C24.0413 13.3344 23.7572 12.8048 23.3091 12.4381C22.861 12.0715 22.2857 11.8979 21.7096 11.9555H20.8407C20.7255 11.9555 20.615 11.9098 20.5336 11.8283C20.4521 11.7468 20.4063 11.6363 20.4063 11.5211C20.4063 11.4059 20.4521 11.2954 20.5336 11.2139C20.615 11.1325 20.7255 11.0867 20.8407 11.0867ZM43.4306 21.5128H45.6027C45.8332 21.5128 46.0542 21.4213 46.2171 21.2583C46.38 21.0954 46.4716 20.8744 46.4716 20.644C46.4716 20.4135 46.38 20.1925 46.2171 20.0296C46.0542 19.8667 45.8332 19.7751 45.6027 19.7751H44.7339V18.9063C44.7339 18.6758 44.6424 18.4548 44.4794 18.2919C44.3165 18.129 44.0955 18.0374 43.8651 18.0374C43.6346 18.0374 43.4136 18.129 43.2507 18.2919C43.0878 18.4548 42.9962 18.6758 42.9962 18.9063V19.8186C42.4683 19.9257 41.9991 20.2253 41.6796 20.659C41.3601 21.0927 41.2132 21.6296 41.2673 22.1655C41.3215 22.7015 41.5728 23.1982 41.9726 23.5592C42.3723 23.9202 42.892 24.1199 43.4306 24.1193C44.0041 24.1193 44.7339 23.9803 44.7339 24.5537C44.7339 24.669 44.6881 24.7795 44.6067 24.8609C44.5252 24.9424 44.4147 24.9882 44.2995 24.9882H42.1274C41.8969 24.9882 41.6759 25.0797 41.513 25.2426C41.3501 25.4056 41.2585 25.6266 41.2585 25.857C41.2585 26.0874 41.3501 26.3084 41.513 26.4714C41.6759 26.6343 41.8969 26.7259 42.1274 26.7259H42.9962V27.5947C42.9962 27.8251 43.0878 28.0461 43.2507 28.2091C43.4136 28.372 43.6346 28.4635 43.8651 28.4635C44.0955 28.4635 44.3165 28.372 44.4794 28.2091C44.6424 28.0461 44.7339 27.8251 44.7339 27.5947V26.7259C45.31 26.6682 45.8396 26.3842 46.2062 25.9361C46.5728 25.488 46.7464 24.9126 46.6888 24.3365C46.6312 23.7605 46.3471 23.2309 45.899 22.8642C45.4509 22.4976 44.8756 22.324 44.2995 22.3816H43.4306C43.3154 22.3816 43.2049 22.3359 43.1235 22.2544C43.042 22.1729 42.9962 22.0624 42.9962 21.9472C42.9962 21.832 43.042 21.7215 43.1235 21.64C43.2049 21.5586 43.3154 21.5128 43.4306 21.5128Z" fill="#D9D9D9"/>
</svg>
