<svg width="50" height="50" viewBox="0 0 50 50" fill="none" xmlns="http://www.w3.org/2000/svg">
<path d="M25.5703 11.5879C30.7797 11.6129 35.8393 14.8188 38.0368 19.6387C39.2407 22.2773 39.5656 25.3024 38.9835 28.1335C38.9835 28.1335 38.8365 28.6554 38.5249 28.9008C37.9883 29.3227 37.0946 29.1963 36.7065 28.6024C36.3244 28.0189 36.6463 27.1942 36.7212 26.4049C37.2034 21.3115 33.8549 16.0756 28.7365 14.5528C24.8515 13.3959 20.3637 14.5263 17.4812 17.4779C14.1577 20.8823 13.2992 26.4769 15.6879 30.778C17.3489 33.7707 20.4328 35.9301 23.8137 36.4475C25.1366 36.6504 26.4949 36.6136 27.8119 36.3446L27.9192 36.327C28.0163 36.3196 28.0398 36.3152 28.1368 36.3211C28.8262 36.3622 29.4009 37.0649 29.298 37.7513C29.2143 38.3231 28.7057 38.72 28.103 38.8332C22.8553 39.8313 17.077 37.4897 14.0401 32.877C11.8925 29.6152 11.231 25.4362 12.2805 21.6526C13.849 16.0051 19.3818 11.6746 25.3483 11.5894C25.4233 11.5879 25.4968 11.5879 25.5703 11.5879Z" fill="#4A7DE2"/>
<path d="M35.5269 35.326V31.5782C35.5331 31.3496 35.5543 31.2872 35.5968 31.1648C35.7504 30.7252 36.1663 30.3892 36.6359 30.3368C36.7707 30.3205 36.8032 30.3293 36.8457 30.3305C37.073 30.3493 37.1354 30.3743 37.254 30.4242C37.6637 30.5928 37.9671 30.9937 38.0171 31.4383C38.0246 31.4995 38.0233 31.5157 38.0258 31.5782V35.326H41.7737C41.7974 35.3272 41.8199 35.3272 41.8436 35.3285C42.1296 35.3522 42.2208 35.3959 42.3781 35.4821C43.0975 35.8805 43.2299 37.0744 42.4968 37.5952C42.287 37.7438 42.0297 37.8175 41.7737 37.825H38.0258V41.5741C37.9984 42.5307 36.7358 43.2126 35.9427 42.5057C35.7167 42.3022 35.5681 42.0149 35.5344 41.714C35.5269 41.6515 35.5281 41.6353 35.5269 41.5741V37.825H31.7778C31.4918 37.8175 31.3969 37.7788 31.2358 37.7013C30.469 37.3317 30.3079 36.0866 31.0547 35.557C31.2645 35.4084 31.5218 35.3335 31.7778 35.326H35.5269ZM24.2808 18.9509V17.8344C24.2908 17.5721 24.3133 17.5284 24.3533 17.416C24.5056 16.9877 24.9065 16.6592 25.3611 16.5968C25.5235 16.5743 25.5634 16.5855 25.6159 16.588C26.1953 16.6467 26.6911 17.0963 26.7686 17.6633C26.7786 17.7395 26.7773 17.7582 26.7798 17.8344V18.9484C28.4133 19.2556 29.9195 20.176 30.4028 21.8258C30.4827 22.1018 30.5252 22.389 30.5289 22.6775C30.5289 22.6775 30.5102 23.0746 30.3591 23.3344C29.9794 23.9876 28.9429 24.1449 28.3896 23.5829C27.8326 23.0172 28.3009 22.1242 26.901 21.576C26.861 21.561 26.821 21.546 26.7798 21.5323V24.2024C28.3459 24.5046 29.7858 25.38 30.3341 26.8687C30.6838 27.8216 30.5264 28.9356 29.9532 29.7798C29.2501 30.8176 28.0774 31.4757 26.7798 31.7293V32.827C26.7698 33.143 26.7261 33.2354 26.6399 33.4027C26.2553 34.1458 25.0364 34.2932 24.5106 33.5476C24.3957 33.3853 24.3196 33.1954 24.2933 32.9981C24.2821 32.9219 24.2846 32.9032 24.2808 32.827V31.7205C23.5915 31.5819 22.9283 31.3271 22.3401 30.9525C21.3697 30.3355 20.6029 29.319 20.538 28.125C20.493 27.2945 21.2748 26.5265 22.1053 26.7488C22.6411 26.8924 22.9995 27.4219 23.0332 27.9952C23.0744 28.5921 23.7014 28.9056 24.1609 29.0854C24.2009 29.1004 24.2409 29.1154 24.2808 29.1291V26.4616C22.6598 26.1493 21.1362 25.2164 20.6591 23.5854C20.3457 22.5139 20.6766 21.305 21.4347 20.467C22.1777 19.644 23.2093 19.1594 24.2808 18.9509ZM26.7798 26.7825V29.1441C27.1058 29.028 27.403 28.8619 27.6478 28.6433C27.8638 28.451 28.0537 28.1925 28.0274 27.9002C27.97 27.2621 27.2844 26.9549 26.7798 26.7825ZM24.2808 21.5185C23.9536 21.6347 23.6577 21.8008 23.4141 22.0181C23.1993 22.2092 23.0107 22.4639 23.0345 22.7562C23.0857 23.3918 23.7688 23.7053 24.2808 23.8801V21.5185Z" fill="#4A7DE2"/>
<path d="M25.5729 7.85686C29.0115 7.86746 32.4492 8.89674 35.3117 10.8263C38.7114 13.1163 41.2638 16.6406 42.3717 20.5969C43.416 24.3323 43.1633 28.4494 41.7047 31.9966C41.1949 33.2362 39.6638 32.9614 39.336 31.9904C39.1478 31.4294 39.5039 30.8083 39.7098 30.2084C41.4432 25.1513 40.2734 19.2213 36.5875 15.2014C33.4519 11.7831 28.6572 9.96577 24.0224 10.4323C21.4143 10.6955 18.8849 11.6506 16.7565 13.1764L16.5922 13.2895C16.2706 13.4626 16.1575 13.4662 15.9517 13.4653C15.1106 13.4653 14.4082 12.4466 14.8526 11.6241C15.0081 11.3343 15.297 11.1443 15.5806 10.9491C18.4634 8.96035 21.9621 7.87541 25.4784 7.85774C25.5102 7.85774 25.5411 7.85686 25.5729 7.85686ZM12.5414 14.4159C13.4885 14.5096 14.0212 15.6696 13.4523 16.4418C13.4266 16.4762 13.4019 16.5116 13.3763 16.546C9.67884 21.6677 9.60904 29.2277 13.6369 34.4607C16.3925 38.0415 20.8215 40.2688 25.3644 40.3183C27.4256 40.3404 29.4833 39.9348 31.3925 39.1317L31.4985 39.0929C31.8519 38.9974 31.9624 39.0195 32.1629 39.0664C33.1489 39.2978 33.5244 40.9491 32.2902 41.4659C26.8991 43.7189 20.6139 43.081 15.8271 39.8862C11.1499 36.764 8.13007 31.2916 8.04349 25.5948C7.98606 21.8196 9.17878 18.0542 11.4114 14.9999C11.4114 14.9999 11.9282 14.4106 12.5414 14.4159Z" fill="#4A7DE2"/>
</svg>
