<svg width="98" height="98" viewBox="0 0 98 98" fill="none" xmlns="http://www.w3.org/2000/svg">
<path d="M69.1381 30.7555C70.7343 29.1594 73.3233 29.1594 74.9194 30.7555C76.5156 32.3523 76.5156 34.9412 74.9194 36.5374L44.2151 67.2428C42.6184 68.839 40.0294 68.839 38.4333 67.2428L23.0806 51.8901C21.4844 50.2939 21.4844 47.705 23.0806 46.1088C24.6773 44.5121 27.2663 44.5121 28.8624 46.1088L41.3242 58.5706L69.1381 30.7555ZM48.9997 0C62.5287 0 74.78 5.48543 83.6473 14.3527C92.5146 23.2194 98 35.4713 98 48.9997C98 62.5304 92.5151 74.78 83.6473 83.6473C74.78 92.5146 62.5287 98 48.9997 98C35.4696 98 23.2194 92.5151 14.3527 83.6473C5.48433 74.78 0 62.5304 0 48.9997C0 35.4713 5.48543 23.2194 14.3527 14.3527C23.2194 5.48433 35.4696 0 48.9997 0ZM77.866 20.134C70.4792 12.7477 60.2731 8.17856 48.9997 8.17856C37.7258 8.17856 27.5197 12.7477 20.134 20.134C12.7477 27.5203 8.17856 37.7269 8.17856 48.9997C8.17856 60.2742 12.7477 70.4803 20.134 77.866C27.5197 85.2523 37.7258 89.8209 48.9997 89.8209C60.2731 89.8209 70.4792 85.2523 77.866 77.866C85.2523 70.4803 89.8209 60.2742 89.8209 48.9997C89.8209 37.7269 85.2523 27.5203 77.866 20.134Z" fill="white"/>
</svg>
