<svg width="31" height="30" viewBox="0 0 31 30" fill="none" xmlns="http://www.w3.org/2000/svg">
<path d="M21.9538 9.41496C22.4424 8.92635 23.235 8.92635 23.7236 9.41496C24.2122 9.90375 24.2122 10.6963 23.7236 11.1849L14.3243 20.5845C13.8355 21.0732 13.043 21.0732 12.5544 20.5845L7.85454 15.8847C7.36593 15.3961 7.36593 14.6036 7.85454 14.1149C8.34333 13.6262 9.13588 13.6262 9.6245 14.1149L13.4393 17.9298L21.9538 9.41496ZM15.789 0C19.9305 0 23.6809 1.67921 26.3954 4.39368C29.1098 7.10798 30.7891 10.8586 30.7891 14.9999C30.7891 19.142 29.11 22.8918 26.3954 25.6063C23.6809 28.3208 19.9305 30 15.789 30C11.6471 30 7.89705 28.321 5.18275 25.6063C2.46794 22.8918 0.789062 19.142 0.789062 14.9999C0.789062 10.8586 2.46828 7.10798 5.18275 4.39368C7.89705 1.67888 11.6471 0 15.789 0ZM24.6256 6.16347C22.3643 3.90237 19.24 2.50364 15.789 2.50364C12.3378 2.50364 9.21347 3.90237 6.95253 6.16347C4.69143 8.42457 3.2927 11.5491 3.2927 14.9999C3.2927 18.4513 4.69143 21.5756 6.95253 23.8365C9.21347 26.0976 12.3378 27.4962 15.789 27.4962C19.24 27.4962 22.3643 26.0976 24.6256 23.8365C26.8867 21.5756 28.2853 18.4513 28.2853 14.9999C28.2853 11.5491 26.8867 8.42457 24.6256 6.16347Z" fill="#4A7DE2"/>
</svg>
