<svg width="118" height="118" viewBox="0 0 118 118" fill="currentColor" xmlns="http://www.w3.org/2000/svg">
<path d="M44.0035 61.4583H44.4952C47.1993 61.7042 49.166 63.6708 49.166 66.375C49.166 67.85 50.1493 68.8333 51.6243 68.8333C53.0993 68.8333 54.0827 67.85 54.0827 66.375C54.0827 61.7042 50.8868 58.0167 46.7077 56.7875V54.0833C46.7077 52.6083 45.7243 51.625 44.2493 51.625C42.7743 51.625 41.791 52.6083 41.791 54.0833V56.7875C37.6118 57.7708 34.416 61.7042 34.416 66.375C34.416 71.7833 38.841 76.2083 44.2493 76.2083C46.9535 76.2083 49.166 78.4208 49.166 81.125C49.166 83.8292 46.9535 86.0417 44.2493 86.0417C41.5452 86.0417 39.3327 83.8292 39.3327 81.125C39.3327 79.65 38.3493 78.6667 36.8743 78.6667C35.3993 78.6667 34.416 79.65 34.416 81.125C34.416 85.7958 37.6118 89.4833 41.791 90.7125V93.6625C41.791 95.1375 42.7743 96.1208 44.2493 96.1208C45.7243 96.1208 46.7077 95.1375 46.7077 93.6625V90.7125C50.8868 89.7292 54.0827 85.7958 54.0827 81.125C54.0827 75.7167 49.6577 71.2917 44.2493 71.2917C41.5452 71.2917 39.3327 69.0792 39.3327 66.375C39.3327 63.6708 41.2993 61.7042 44.0035 61.4583Z" fill="white"/>
<path d="M102.266 72.5209C102.758 71.2917 103.25 70.0626 103.25 68.8334V63.9167C103.25 61.9501 102.512 60.2292 101.283 59.0001C102.512 57.7709 103.25 56.0501 103.25 54.0834V49.1667C103.25 47.2001 102.512 45.4792 101.283 44.2501C102.512 43.0209 103.25 41.3001 103.25 39.3334V34.4167C103.25 32.4501 102.512 30.7292 101.283 29.5001C102.512 28.2709 103.25 26.5501 103.25 24.5834V19.6667C103.25 15.4876 100.054 12.2917 95.8746 12.2917H66.3746C62.1954 12.2917 58.9996 15.4876 58.9996 19.6667V24.5834C58.9996 26.5501 59.7371 28.2709 60.9663 29.5001C59.7371 30.7292 58.9996 32.4501 58.9996 34.4167V39.3334C58.9996 41.3001 59.7371 43.0209 60.9663 44.2501C60.4746 44.7417 60.2288 45.2334 59.9829 45.9709C55.3121 43.2667 50.1496 41.7917 44.4954 41.7917C26.7954 41.7917 12.5371 56.0501 12.5371 73.7501C12.5371 91.4501 26.7954 105.708 44.4954 105.708C50.1496 105.708 55.5579 104.233 59.9829 101.529C61.2121 103.988 63.6704 105.708 66.6204 105.708H96.1204C100.3 105.708 103.495 102.513 103.495 98.3334V93.4167C103.495 92.1876 103.004 90.9584 102.512 89.7292C104.233 88.5001 105.708 86.2876 105.708 83.5834V78.6667C105.708 75.9626 104.233 73.7501 102.266 72.5209ZM100.791 83.5834C100.791 85.0584 99.8079 86.0417 98.3329 86.0417H73.7496C74.9788 83.0917 75.7163 79.6501 76.2079 76.2084H98.3329C99.8079 76.2084 100.791 77.1917 100.791 78.6667V83.5834ZM98.3329 63.9167V68.8334C98.3329 70.3084 97.3496 71.2917 95.8746 71.2917H76.2079C75.9621 67.8501 75.2246 64.4084 73.7496 61.4584H95.8746C97.1038 61.4584 98.3329 62.6876 98.3329 63.9167ZM63.9163 34.4167C63.9163 33.1876 64.8996 31.9584 66.3746 31.9584H95.8746C97.1038 31.9584 98.3329 33.1876 98.3329 34.4167V39.3334C98.3329 40.8084 97.3496 41.7917 95.8746 41.7917H66.3746C64.8996 41.7917 63.9163 40.8084 63.9163 39.3334V34.4167ZM63.9163 19.6667C63.9163 18.1917 64.8996 17.2084 66.3746 17.2084H95.8746C97.3496 17.2084 98.3329 18.1917 98.3329 19.6667V24.5834C98.3329 25.8126 97.3496 27.0417 95.8746 27.0417H66.3746C65.1454 27.0417 63.9163 25.8126 63.9163 24.5834V19.6667ZM66.3746 46.7084H95.8746C97.3496 46.7084 98.3329 47.6917 98.3329 49.1667V54.0834C98.3329 55.3126 97.3496 56.5417 95.8746 56.5417H71.2913C69.3246 53.5917 66.8663 50.8876 64.1621 48.6751C64.1621 47.4459 65.1454 46.7084 66.3746 46.7084ZM17.2079 73.7501C17.2079 58.7542 29.2538 46.7084 44.2496 46.7084C59.2454 46.7084 71.2913 58.7542 71.2913 73.7501C71.2913 88.7459 59.2454 100.792 44.2496 100.792C29.2538 100.792 17.2079 88.7459 17.2079 73.7501ZM98.3329 98.3334C98.3329 99.8084 97.3496 100.792 95.8746 100.792H66.3746C65.1454 100.792 64.1621 100.054 63.9163 98.8251C66.6204 96.6126 69.0788 93.9084 71.0454 90.9584H95.8746C97.1038 90.9584 98.3329 92.1876 98.3329 93.4167V98.3334Z" fill="white"/>
</svg>
