<svg width="137" height="137" viewBox="0 0 137 137" fill="none" xmlns="http://www.w3.org/2000/svg">
<path d="M127.753 88.7289C128.609 87.0378 128.438 86.417 128.438 80.9799C128.438 79.3732 127.8 77.8323 126.664 76.6962C125.528 75.5601 123.987 74.9219 122.38 74.9219H120.518C139.141 61.8427 130.022 32.1094 107.032 32.1094C103.057 32.1079 99.1474 33.1123 95.666 35.0292C92.1845 36.946 89.2449 39.7128 87.1209 43.0719C84.9969 46.431 83.7576 50.273 83.5186 54.2401C83.2796 58.2072 84.0486 62.1702 85.7539 65.76C90.9556 76.7414 99.4325 74.9219 87.4022 74.9219C85.7955 74.9219 84.2546 75.5601 83.1185 76.6962C81.9824 77.8323 81.3442 79.3732 81.3442 80.9799C81.3442 85.2611 80.6592 88.8573 84.1698 91.0836C83.7257 91.929 83.4908 92.8686 83.4848 93.8236C83.4848 99.1109 83.4848 99.3464 83.7845 100.609C82.9611 100.538 82.1317 100.632 81.3451 100.886C80.5584 101.139 79.8304 101.548 79.2036 102.086C78.5768 101.548 77.8487 101.139 77.0621 100.886C76.2754 100.632 75.4461 100.538 74.6226 100.609C75.0079 99.3464 74.9223 99.2608 74.9223 93.8236C74.9163 92.8686 74.6814 91.929 74.2373 91.0836C77.7479 88.943 77.0629 85.3253 77.0629 80.9799C77.0629 79.3732 76.4247 77.8323 75.2886 76.6962C74.1525 75.5601 72.6116 74.9219 71.005 74.9219C69.7848 74.9219 70.6411 75.2001 70.6411 73.1451C70.6411 67.7508 70.6411 67.5153 70.2986 66.1667C71.6138 65.8462 72.7838 65.0945 73.6218 64.0314C74.4599 62.9683 74.9177 61.6551 74.9223 60.3014V55.2923C74.9223 53.6857 74.2841 52.1448 73.148 51.0087C72.0119 49.8726 70.471 49.2344 68.8643 49.2344H64.8614C83.7417 36.0481 74.3015 6.42188 51.3754 6.42188C47.4012 6.42039 43.4912 7.42484 40.0097 9.34167C36.5283 11.2585 33.5886 14.0253 31.4646 17.3844C29.3406 20.7435 28.1014 24.5855 27.8624 28.5526C27.6233 32.5197 28.3923 36.4827 30.0976 40.0725C35.0639 50.5402 42.5989 49.2344 33.8865 49.2344C32.2799 49.2344 30.739 49.8726 29.6029 51.0087C28.4668 52.1448 27.8286 53.6857 27.8286 55.2923C27.8286 60.6867 27.7215 60.9222 28.1711 62.2708C26.8558 62.5913 25.6858 63.343 24.8478 64.4061C24.0097 65.4692 23.5519 66.7824 23.5473 68.1361V73.1451C23.5489 73.9977 23.7291 74.8405 24.0764 75.6192C24.4237 76.3978 24.9304 77.095 25.5637 77.6658C26.197 78.2366 26.9429 78.6683 27.7534 78.9331C28.5638 79.1979 29.4207 79.2899 30.2689 79.2031C26.5133 79.2662 22.8259 80.2164 19.5075 81.976C16.1891 83.7356 13.3338 86.2549 11.1745 89.3283C10.8853 89.7943 10.7859 90.3536 10.897 90.8907C11.0081 91.4278 11.3211 91.9017 11.7715 92.2148C12.2218 92.5278 12.7752 92.6561 13.3173 92.5731C13.8595 92.49 14.3491 92.2021 14.6851 91.7686C17.1712 88.1834 20.8007 85.5481 24.9794 84.2942C29.1582 83.0402 33.6389 83.2417 37.6882 84.8657C41.7376 86.4898 45.1158 89.4401 47.27 93.2341C49.4243 97.028 50.227 101.441 49.5469 105.75C48.8667 110.06 46.7439 114.011 43.5259 116.957C40.3079 119.903 36.1853 121.67 31.8326 121.967C27.4799 122.265 23.155 121.077 19.5655 118.597C15.9761 116.117 13.3347 112.492 12.0736 108.316C11.9146 107.771 11.5456 107.311 11.0478 107.038C10.55 106.765 9.9642 106.701 9.41918 106.86C8.87416 107.019 8.41461 107.388 8.14163 107.886C7.86865 108.384 7.80459 108.969 7.96356 109.514C9.49653 114.686 12.7588 119.175 17.2046 122.23C21.6505 125.285 27.0105 126.72 32.3881 126.297C32.7617 127.538 33.5261 128.625 34.5675 129.397C35.609 130.168 36.8717 130.582 38.1678 130.578H73.1456C74.7523 130.578 76.2931 129.94 77.4292 128.804C78.5653 127.668 79.2036 126.127 79.2036 124.52C79.2036 119.34 79.3962 118.505 78.5186 116.771C78.7606 116.619 78.9897 116.447 79.2036 116.257C80.2913 117.201 81.6807 117.725 83.1209 117.734C84.3411 117.734 83.4848 117.456 83.4848 119.511V124.52C83.4848 126.127 84.1231 127.668 85.2591 128.804C86.3952 129.94 87.9361 130.578 89.5428 130.578H124.521C126.127 130.578 127.668 129.94 128.804 128.804C129.94 127.668 130.579 126.127 130.579 124.52V119.511C130.579 117.904 129.94 116.364 128.804 115.227C127.668 114.091 126.127 113.453 124.521 113.453C123.3 113.453 124.157 113.731 124.157 111.676C124.157 106.389 124.157 106.154 123.857 104.891C124.705 104.974 125.56 104.88 126.369 104.614C127.178 104.348 127.923 103.916 128.555 103.346C129.188 102.775 129.694 102.08 130.043 101.303C130.391 100.525 130.574 99.6842 130.579 98.8326C130.579 94.4658 131.264 90.9552 127.753 88.7289ZM89.6284 63.9191C88.0889 60.5756 87.5107 56.8695 87.9587 53.2159C90.87 32.6231 118.698 30.6323 125.184 49.2344C126.777 53.8764 126.539 58.9515 124.518 63.4237C122.496 67.8959 118.844 71.4281 114.307 73.2992C109.77 75.1703 104.69 75.2394 100.103 73.4922C95.5171 71.745 91.7705 68.3133 89.6284 63.8977V63.9191ZM85.6254 81.0441C85.6254 80.5728 85.8126 80.1209 86.1458 79.7877C86.479 79.4545 86.9309 79.2673 87.4022 79.2673H122.38C122.851 79.2673 123.303 79.4545 123.636 79.7877C123.969 80.1209 124.157 80.5728 124.157 81.0441V86.0531C124.157 86.5243 123.969 86.9763 123.636 87.3095C123.303 87.6427 122.851 87.8298 122.38 87.8298H87.4022C86.9309 87.8298 86.479 87.6427 86.1458 87.3095C85.8126 86.9763 85.6254 86.5243 85.6254 86.0531V81.0441ZM77.0629 106.732V111.741C77.0629 112.212 76.8757 112.664 76.5425 112.997C76.2093 113.33 75.7574 113.517 75.2862 113.517H51.3754C52.6819 111.019 53.5027 108.295 53.7943 105.49C53.7943 104.698 51.5039 104.955 75.2006 104.955C75.4357 104.943 75.6708 104.979 75.8921 105.059C76.1134 105.139 76.3166 105.262 76.4899 105.422C76.6632 105.581 76.8031 105.773 76.9015 105.987C76.9998 106.201 77.0547 106.432 77.0629 106.667V106.732ZM53.9442 100.609C53.6425 97.6174 52.7706 94.7108 51.3754 92.0469H68.7787C69.2499 92.0469 69.7018 92.2341 70.035 92.5673C70.3682 92.9005 70.5554 93.3524 70.5554 93.8236V98.8326C70.5554 99.3039 70.3682 99.7558 70.035 100.089C69.7018 100.422 69.2499 100.609 68.7787 100.609H53.9442ZM33.9722 38.2316C32.4326 34.8881 31.8545 31.182 32.3025 27.5284C35.2137 6.93563 63.0418 4.94485 69.5279 23.5469C71.1212 28.1889 70.8828 33.264 68.8614 37.7362C66.84 42.2084 63.188 45.7406 58.6509 47.6117C54.1137 49.4828 49.0335 49.5519 44.4472 47.8047C39.8609 46.0575 36.1143 42.6258 33.9722 38.2102V38.2316ZM32.1098 55.3566C32.1098 54.8853 32.297 54.4334 32.6302 54.1002C32.9634 53.767 33.4153 53.5798 33.8865 53.5798H68.8643C69.3356 53.5798 69.7875 53.767 70.1207 54.1002C70.4539 54.4334 70.6411 54.8853 70.6411 55.3566V60.3656C70.6411 60.8368 70.4539 61.2888 70.1207 61.622C69.7875 61.9552 69.3356 62.1423 68.8643 62.1423H33.8865C33.4153 62.1423 32.9634 61.9552 32.6302 61.622C32.297 61.2888 32.1098 60.8368 32.1098 60.3656V55.3566ZM27.8286 73.2094V68.1361C27.8286 67.6649 28.0157 67.213 28.3489 66.8798C28.6821 66.5466 29.1341 66.3594 29.6053 66.3594H64.5831C65.0543 66.3594 65.5062 66.5466 65.8394 66.8798C66.1726 67.213 66.3598 67.6649 66.3598 68.1361V73.1451C66.3598 73.6164 66.1726 74.0683 65.8394 74.4015C65.5062 74.7347 65.0543 74.9219 64.5831 74.9219H29.6053C29.1341 74.9219 28.6821 74.7347 28.3489 74.4015C28.0157 74.0683 27.8286 73.6164 27.8286 73.1451V73.2094ZM34.914 79.6312C35.6847 78.9891 33.33 79.2031 71.005 79.2031C71.4762 79.2031 71.9281 79.3903 72.2613 79.7235C72.5945 80.0567 72.7817 80.5086 72.7817 80.9799V85.9889C72.7817 86.4601 72.5945 86.912 72.2613 87.2452C71.9281 87.5784 71.4762 87.7656 71.005 87.7656H48.6568C45.1633 83.5361 40.3026 80.6591 34.914 79.6312ZM74.9223 124.52C74.9223 124.991 74.7351 125.443 74.4019 125.776C74.0687 126.11 73.6168 126.297 73.1456 126.297C35.1709 126.297 37.4614 126.661 36.755 125.441C41.408 124.143 45.5533 121.454 48.6354 117.734H73.1456C73.6168 117.734 74.0687 117.922 74.4019 118.255C74.7351 118.588 74.9223 119.04 74.9223 119.511V124.52ZM126.297 119.511V124.52C126.297 124.991 126.11 125.443 125.777 125.776C125.444 126.11 124.992 126.297 124.521 126.297H89.5428C89.0716 126.297 88.6197 126.11 88.2865 125.776C87.9533 125.443 87.7661 124.991 87.7661 124.52V119.511C87.7661 119.04 87.9533 118.588 88.2865 118.255C88.6197 117.922 89.0716 117.734 89.5428 117.734H124.521C124.992 117.734 125.444 117.922 125.777 118.255C126.11 118.588 126.297 119.04 126.297 119.511ZM119.875 106.667V111.676C119.875 112.148 119.688 112.6 119.355 112.933C119.022 113.266 118.57 113.453 118.099 113.453H83.1209C82.6514 113.448 82.2027 113.259 81.8707 112.927C81.5387 112.595 81.3497 112.146 81.3442 111.676V106.667C81.3442 106.196 81.5314 105.744 81.8646 105.411C82.1978 105.078 82.6497 104.891 83.1209 104.891H118.099C118.57 104.891 119.022 105.078 119.355 105.411C119.688 105.744 119.875 106.196 119.875 106.667ZM126.297 98.8326C126.297 99.3039 126.11 99.7558 125.777 100.089C125.444 100.422 124.992 100.609 124.521 100.609H89.5428C89.0716 100.609 88.6197 100.422 88.2865 100.089C87.9533 99.7558 87.7661 99.3039 87.7661 98.8326V93.8236C87.7661 93.3524 87.9533 92.9005 88.2865 92.5673C88.6197 92.2341 89.0716 92.0469 89.5428 92.0469H124.521C124.992 92.0469 125.444 92.2341 125.777 92.5673C126.11 92.9005 126.297 93.3524 126.297 93.8236V98.8326Z" fill="white"/>
<path d="M31.0395 107.031H25.688C25.1202 107.031 24.5758 107.257 24.1743 107.658C23.7729 108.06 23.5473 108.604 23.5473 109.172C23.5473 109.74 23.7729 110.284 24.1743 110.686C24.5758 111.087 25.1202 111.312 25.688 111.312H27.8286V113.453C27.8286 114.021 28.0541 114.565 28.4556 114.967C28.857 115.368 29.4015 115.594 29.9692 115.594C30.5369 115.594 31.0814 115.368 31.4829 114.967C31.8843 114.565 32.1098 114.021 32.1098 113.453V111.312C33.5292 111.171 34.834 110.471 35.7372 109.367C36.6405 108.263 37.0682 106.845 36.9263 105.426C36.7843 104.006 36.0844 102.702 34.9804 101.798C33.8764 100.895 32.4589 100.467 31.0395 100.609C29.6267 100.609 27.8286 100.952 27.8286 99.5391C27.8286 99.2552 27.9414 98.983 28.1421 98.7822C28.3428 98.5815 28.615 98.4688 28.8989 98.4688H34.2505C34.8182 98.4688 35.3627 98.2432 35.7641 97.8418C36.1656 97.4403 36.3911 96.8959 36.3911 96.3281C36.3911 95.7604 36.1656 95.2159 35.7641 94.8145C35.3627 94.413 34.8182 94.1875 34.2505 94.1875H32.1098V92.0469C32.1098 91.4791 31.8843 90.9347 31.4829 90.5332C31.0814 90.1318 30.5369 89.9062 29.9692 89.9062C29.4015 89.9062 28.857 90.1318 28.4556 90.5332C28.0541 90.9347 27.8286 91.4791 27.8286 92.0469V94.1875C26.4093 94.3294 25.1045 95.0294 24.2012 96.1333C23.298 97.2373 22.8703 98.6549 23.0122 100.074C23.1541 101.494 23.8541 102.798 24.958 103.702C26.062 104.605 27.4796 105.033 28.8989 104.891H31.0395C31.3234 104.891 31.5956 105.003 31.7964 105.204C31.9971 105.405 32.1098 105.677 32.1098 105.961C32.1098 106.245 31.9971 106.517 31.7964 106.718C31.5956 106.918 31.3234 107.031 31.0395 107.031ZM11.3886 100.609C11.4247 99.9955 11.5179 99.3864 11.6669 98.7898C11.7789 98.2479 11.6767 97.6837 11.3817 97.2155C11.0867 96.7473 10.6219 96.4115 10.0847 96.2786C9.54752 96.1457 8.97974 96.226 8.50047 96.5026C8.0212 96.7792 7.66768 97.2307 7.51406 97.7623C7.29585 98.6984 7.15268 99.6505 7.08594 100.609C7.08594 101.18 7.31259 101.727 7.71605 102.131C8.1195 102.534 8.6667 102.761 9.23727 102.761C9.80783 102.761 10.355 102.534 10.7585 102.131C11.1619 101.727 11.3886 101.18 11.3886 100.609ZM50.3052 25.6875H55.6567C56.2244 25.6875 56.7689 25.462 57.1704 25.0605C57.5718 24.6591 57.7973 24.1146 57.7973 23.5469C57.7973 22.9791 57.5718 22.4347 57.1704 22.0332C56.7689 21.6318 56.2244 21.4062 55.6567 21.4062H53.5161V19.2656C53.5161 18.6979 53.2906 18.1534 52.8891 17.752C52.4877 17.3505 51.9432 17.125 51.3755 17.125C50.8077 17.125 50.2633 17.3505 49.8618 17.752C49.4604 18.1534 49.2348 18.6979 49.2348 19.2656V21.5133C47.9342 21.7774 46.7782 22.5153 45.9911 23.5838C45.2039 24.6523 44.8419 25.9752 44.9753 27.2956C45.1087 28.6161 45.7279 29.8398 46.7128 30.7293C47.6977 31.6189 48.978 32.1107 50.3052 32.1094C51.718 32.1094 53.5161 31.7669 53.5161 33.1797C53.5161 33.4636 53.4033 33.7358 53.2026 33.9365C53.0019 34.1372 52.7296 34.25 52.4458 34.25H47.0942C46.5265 34.25 45.982 34.4755 45.5806 34.877C45.1791 35.2784 44.9536 35.8229 44.9536 36.3906C44.9536 36.9584 45.1791 37.5028 45.5806 37.9043C45.982 38.3057 46.5265 38.5312 47.0942 38.5312H49.2348V40.6719C49.2348 41.2396 49.4604 41.7841 49.8618 42.1855C50.2633 42.587 50.8077 42.8125 51.3755 42.8125C51.9432 42.8125 52.4877 42.587 52.8891 42.1855C53.2906 41.7841 53.5161 41.2396 53.5161 40.6719V38.5312C54.9354 38.3893 56.2402 37.6894 57.1435 36.5854C58.0467 35.4814 58.4744 34.0639 58.3325 32.6445C58.1906 31.2252 57.4906 29.9204 56.3867 29.0171C55.2827 28.1139 53.8651 27.6862 52.4458 27.8281H50.3052C50.0213 27.8281 49.7491 27.7154 49.5483 27.5146C49.3476 27.3139 49.2348 27.0417 49.2348 26.7578C49.2348 26.4739 49.3476 26.2017 49.5483 26.001C49.7491 25.8003 50.0213 25.6875 50.3052 25.6875ZM105.961 51.375H111.313C111.881 51.375 112.425 51.1495 112.827 50.748C113.228 50.3466 113.454 49.8021 113.454 49.2344C113.454 48.6666 113.228 48.1222 112.827 47.7207C112.425 47.3193 111.881 47.0938 111.313 47.0938H109.172V44.9531C109.172 44.3854 108.947 43.8409 108.545 43.4395C108.144 43.038 107.599 42.8125 107.032 42.8125C106.464 42.8125 105.92 43.038 105.518 43.4395C105.117 43.8409 104.891 44.3854 104.891 44.9531V47.2008C103.59 47.4649 102.434 48.2028 101.647 49.2713C100.86 50.3399 100.498 51.6627 100.632 52.9831C100.765 54.3036 101.384 55.5273 102.369 56.4168C103.354 57.3064 104.634 57.7982 105.961 57.7969C107.374 57.7969 109.172 57.4544 109.172 58.8672C109.172 59.1511 109.06 59.4233 108.859 59.624C108.658 59.8247 108.386 59.9375 108.102 59.9375H102.75C102.183 59.9375 101.638 60.163 101.237 60.5645C100.835 60.9659 100.61 61.5104 100.61 62.0781C100.61 62.6459 100.835 63.1903 101.237 63.5918C101.638 63.9932 102.183 64.2188 102.75 64.2188H104.891V66.3594C104.891 66.9271 105.117 67.4716 105.518 67.873C105.92 68.2745 106.464 68.5 107.032 68.5C107.599 68.5 108.144 68.2745 108.545 67.873C108.947 67.4716 109.172 66.9271 109.172 66.3594V64.2188C110.592 64.0768 111.896 63.3769 112.8 62.2729C113.703 61.1689 114.131 59.7514 113.989 58.332C113.847 56.9127 113.147 55.6079 112.043 54.7046C110.939 53.8014 109.521 53.3737 108.102 53.5156H105.961C105.678 53.5156 105.405 53.4029 105.205 53.2021C105.004 53.0014 104.891 52.7292 104.891 52.4453C104.891 52.1614 105.004 51.8892 105.205 51.6885C105.405 51.4878 105.678 51.375 105.961 51.375Z" fill="white"/>
</svg>
