<svg width="118" height="118" viewBox="0 0 118 118" fill="none" xmlns="http://www.w3.org/2000/svg">
<path d="M24.583 95.875C26.058 95.875 27.0413 94.8917 27.0413 93.4167V92.925C29.9913 91.9417 31.958 89.2375 31.958 86.0417C31.958 81.8625 28.7622 78.6667 24.583 78.6667C23.3538 78.6667 22.1247 77.4375 22.1247 76.2083C22.1247 74.9792 23.108 73.75 24.583 73.75C25.8122 73.75 27.0413 74.9792 27.0413 76.2083C27.0413 77.6833 28.0247 78.6667 29.4997 78.6667C30.9747 78.6667 31.958 77.6833 31.958 76.2083C31.958 73.0125 29.9913 70.3083 27.0413 69.325V68.8333C27.0413 67.3583 26.058 66.375 24.583 66.375C23.108 66.375 22.1247 67.3583 22.1247 68.8333V69.325C19.1747 70.3083 17.208 73.0125 17.208 76.2083C17.208 80.3875 20.4038 83.5833 24.583 83.5833C25.8122 83.5833 27.0413 84.8125 27.0413 86.0417C27.0413 87.2708 26.058 88.5 24.583 88.5C23.3538 88.5 22.1247 87.2708 22.1247 86.0417C22.1247 84.5667 21.1413 83.5833 19.6663 83.5833C18.1913 83.5833 17.208 84.5667 17.208 86.0417C17.208 89.2375 19.1747 91.9417 22.1247 92.925V93.4167C22.1247 94.8917 23.3538 95.875 24.583 95.875Z" fill="white"/>
<path d="M110.625 46.7084H63.425C63.1792 45.7251 62.6875 44.9876 61.95 44.2501C63.1792 43.0209 63.9167 41.3001 63.9167 39.3334V34.4167C63.9167 32.4501 63.1792 30.7292 61.95 29.5001C63.1792 28.2709 63.9167 26.5501 63.9167 24.5834V19.6667C63.9167 15.4876 60.7208 12.2917 56.5417 12.2917H27.0417C22.8625 12.2917 19.6667 15.4876 19.6667 19.6667V24.5834C19.6667 26.5501 20.4042 28.2709 21.6333 29.5001C20.4042 30.7292 19.6667 32.4501 19.6667 34.4167V39.3334C19.6667 41.3001 20.4042 43.0209 21.6333 44.2501C20.4042 45.4792 19.6667 47.2001 19.6667 49.1667V54.0834C19.6667 55.0667 19.9125 56.0501 20.1583 57.0334C8.85 59.0001 0 69.0792 0 81.1251C0 94.6459 11.0625 105.708 24.5833 105.708H110.625C114.804 105.708 118 102.513 118 98.3334V54.0834C118 49.9042 114.804 46.7084 110.625 46.7084ZM63.425 90.9584C63.1792 90.4667 63.1792 90.2209 62.9333 89.9751C63.9167 89.2376 64.9 88.5001 65.3917 87.2709C70.8 86.5334 74.9792 81.8626 74.9792 76.4542C74.9792 70.3084 70.0625 65.3917 63.9167 65.3917V63.9167C63.9167 63.1792 63.6708 62.1959 63.425 61.4584H96.1208C97.1042 64.9001 99.8083 67.6042 103.25 68.5876V83.8292C99.8083 84.8126 97.1042 87.5167 96.1208 90.9584H63.425ZM24.5833 49.1667C24.5833 47.6917 25.5667 46.7084 27.0417 46.7084H56.5417C58.0167 46.7084 59 47.6917 59 49.1667V54.0834C59 55.5584 58.0167 56.5417 56.5417 56.5417H27.0417C25.5667 56.5417 24.5833 55.5584 24.5833 54.0834V49.1667ZM24.5833 39.3334V34.4167C24.5833 33.1876 25.5667 31.9584 27.0417 31.9584H56.5417C57.7708 31.9584 59 33.1876 59 34.4167V39.3334C59 40.8084 58.0167 41.7917 56.5417 41.7917H27.0417C25.5667 41.7917 24.5833 40.8084 24.5833 39.3334ZM62.9333 72.5209C63.425 71.7834 63.6708 71.0459 63.9167 70.0626H64.1625C67.6042 70.0626 70.3083 72.7667 70.3083 76.2084C70.3083 78.6667 68.8333 80.8792 66.6208 81.8626V78.6667C66.375 75.9626 64.9 73.7501 62.9333 72.5209ZM56.5417 61.4584C57.7708 61.4584 59 62.6876 59 63.9167V68.8334C59 70.3084 58.0167 71.2917 56.5417 71.2917H47.2C45.4792 67.3584 42.775 63.9167 39.3333 61.4584H56.5417ZM56.5417 86.0417H48.675C48.9208 84.5667 49.1667 82.8459 49.1667 81.1251C49.1667 79.4042 48.9208 77.6834 48.675 76.2084H59C60.475 76.2084 61.4583 77.1917 61.4583 78.6667V83.5834C61.4583 85.0584 60.475 86.0417 59 86.0417H56.5417ZM24.5833 19.6667C24.5833 18.1917 25.5667 17.2084 27.0417 17.2084H56.5417C58.0167 17.2084 59 18.1917 59 19.6667V24.5834C59 25.8126 58.0167 27.0417 56.5417 27.0417H27.0417C25.8125 27.0417 24.5833 25.8126 24.5833 24.5834V19.6667ZM4.91667 81.1251C4.91667 70.3084 13.7667 61.4584 24.5833 61.4584C35.4 61.4584 44.25 70.3084 44.25 81.1251C44.25 91.9417 35.4 100.792 24.5833 100.792C13.7667 100.792 4.91667 91.9417 4.91667 81.1251ZM39.3333 100.792C42.775 98.3334 45.4792 94.8917 47.2 90.9584H56.5417C57.7708 90.9584 59 92.1876 59 93.4167V98.3334C59 99.8084 58.0167 100.792 56.5417 100.792H39.3333ZM113.083 98.3334C113.083 99.8084 112.1 100.792 110.625 100.792H63.425C63.6708 100.054 63.9167 99.3167 63.9167 98.3334V95.8751H98.3333C99.0708 95.8751 99.5625 95.6292 100.054 95.1376C100.546 94.6459 100.792 94.1542 100.792 93.4167C100.792 90.7126 103.004 88.5001 105.708 88.5001C107.183 88.5001 108.167 87.5167 108.167 86.0417V66.3751C108.167 65.6376 107.921 65.1459 107.429 64.6542C106.938 64.1626 106.446 63.9167 105.708 63.9167C103.004 63.9167 100.792 61.7042 100.792 59.0001C100.792 57.5251 99.8083 56.5417 98.3333 56.5417H63.425C63.6708 55.8042 63.9167 54.8209 63.9167 54.0834V51.6251H110.625C112.1 51.6251 113.083 52.6084 113.083 54.0834V98.3334Z" fill="white"/>
<path d="M93.4167 81.1251C96.1321 81.1251 98.3333 78.9238 98.3333 76.2084C98.3333 73.493 96.1321 71.2917 93.4167 71.2917C90.7013 71.2917 88.5 73.493 88.5 76.2084C88.5 78.9238 90.7013 81.1251 93.4167 81.1251Z" fill="white"/>
</svg>
