<svg width="100" height="101" viewBox="0 0 100 101" fill="none" xmlns="http://www.w3.org/2000/svg">
<g clip-path="url(#clip0_140_1317)">
<path d="M75.7784 62.1077C75.875 58.6909 74.6139 55.375 72.2712 52.8859C69.9285 50.3967 66.695 48.9372 63.2786 48.8266C59.8622 48.9372 56.6288 50.3968 54.2861 52.8859C51.9434 55.375 50.6823 58.6909 50.7788 62.1077C50.6823 65.5245 51.9434 68.8404 54.2861 71.3295C56.6288 73.8187 59.8622 75.2782 63.2786 75.3888C66.695 75.2782 69.9285 73.8187 72.2712 71.3295C74.6139 68.8404 75.875 65.5245 75.7784 62.1077ZM57.0287 62.1077C56.9332 60.3485 57.5363 58.6228 58.7068 57.306C59.8772 55.9893 61.5204 55.188 63.2786 55.0766C65.0369 55.188 66.68 55.9893 67.8505 57.306C69.021 58.6228 69.6241 60.3486 69.5285 62.1078C69.6241 63.867 69.021 65.5927 67.8505 66.9095C66.68 68.2263 65.0369 69.0276 63.2786 69.1389C61.5203 69.0276 59.8772 68.2263 58.7067 66.9095C57.5362 65.5927 56.9332 63.8669 57.0287 62.1077ZM18.748 45.7016V43.9981C21.0655 43.6075 23.1516 42.3603 24.5926 40.5038C26.0336 38.6472 26.7242 36.3169 26.5276 33.975C26.3309 31.6331 25.2613 29.4506 23.5309 27.8603C21.8005 26.27 19.5357 25.3881 17.1855 25.3895H14.0605C13.2344 25.3854 12.4436 25.0543 11.8609 24.4687C11.2782 23.8831 10.9511 23.0906 10.9511 22.2645C10.9511 21.4384 11.2782 20.646 11.8609 20.0604C12.4436 19.4748 13.2344 19.1437 14.0605 19.1396H23.4354C23.8472 19.1418 24.2554 19.0627 24.6365 18.9066C25.0176 18.7506 25.3642 18.5208 25.6561 18.2304C25.9481 17.94 26.1799 17.5947 26.338 17.2145C26.4961 16.8342 26.5775 16.4264 26.5775 16.0146C26.5775 15.6028 26.4961 15.195 26.338 14.8148C26.1799 14.4345 25.9481 14.0893 25.6561 13.7989C25.3642 13.5085 25.0176 13.2786 24.6365 13.1226C24.2554 12.9666 23.8472 12.8874 23.4354 12.8897H18.7479V11.3272C18.7501 10.9154 18.671 10.5072 18.5149 10.126C18.3589 9.74493 18.1291 9.39841 17.8387 9.10641C17.5483 8.81441 17.203 8.58269 16.8228 8.42458C16.4425 8.26646 16.0348 8.18506 15.6229 8.18506C15.2111 8.18506 14.8034 8.26646 14.4231 8.42458C14.0428 8.58269 13.6976 8.81441 13.4072 9.10641C13.1168 9.39841 12.887 9.74493 12.7309 10.126C12.5749 10.5072 12.4957 10.9154 12.498 11.3272V13.0308C10.1805 13.4214 8.09441 14.6686 6.65342 16.5252C5.21243 18.3817 4.52178 20.712 4.71842 23.0539C4.91506 25.3959 5.98464 27.5784 7.71505 29.1686C9.44546 30.7589 11.7103 31.6408 14.0605 31.6394H17.1855C17.5973 31.6371 18.0055 31.7163 18.3866 31.8723C18.7677 32.0284 19.1142 32.2582 19.4062 32.5486C19.6982 32.839 19.93 33.1843 20.0881 33.5645C20.2462 33.9448 20.3276 34.3525 20.3276 34.7644C20.3276 35.1762 20.2462 35.5839 20.0881 35.9642C19.93 36.3445 19.6982 36.6897 19.4062 36.9801C19.1142 37.2705 18.7677 37.5003 18.3866 37.6564C18.0055 37.8124 17.5973 37.8916 17.1855 37.8893H7.81067C6.98186 37.8893 6.18701 38.2186 5.60096 38.8046C5.01491 39.3907 4.68567 40.1855 4.68567 41.0143C4.68567 41.8431 5.01491 42.638 5.60096 43.224C6.18701 43.8101 6.98186 44.1393 7.81067 44.1393H12.4982V45.7018C12.4959 46.1136 12.5751 46.5218 12.7311 46.9029C12.8871 47.2841 13.117 47.6306 13.4074 47.9226C13.6978 48.2146 14.043 48.4463 14.4233 48.6044C14.8035 48.7625 15.2113 48.8439 15.6231 48.8439C16.0349 48.8439 16.4427 48.7625 16.823 48.6044C17.2032 48.4463 17.5485 48.2146 17.8389 47.9226C18.1293 47.6306 18.3591 47.2841 18.5151 46.9029C18.6712 46.5218 18.7503 46.1135 18.748 45.7016Z" fill="#4A7DE2"/>
<path d="M99.9986 34.8279C99.9993 33.2444 99.6774 31.6775 99.0525 30.2225C98.4276 28.7676 97.5129 27.4552 96.3641 26.3655C94.3676 24.4836 91.811 23.3055 89.0833 23.0105C86.3556 22.7155 83.6062 23.3198 81.2535 24.7313C78.8998 23.3178 76.1486 22.7125 73.419 23.0075C70.6894 23.3025 68.1311 24.4817 66.1338 26.3655C64.8 27.6283 63.7848 29.1896 63.1715 30.921C62.5583 32.6525 62.3645 34.5047 62.6061 36.3255H29.6871C29.2753 36.3233 28.8671 36.4024 28.486 36.5585C28.1048 36.7145 27.7583 36.9443 27.4663 37.2347C27.1743 37.5251 26.9426 37.8704 26.7845 38.2506C26.6264 38.6309 26.545 39.0386 26.545 39.4505C26.545 39.8623 26.6264 40.2701 26.7845 40.6503C26.9426 41.0306 27.1743 41.3758 27.4663 41.6662C27.7583 41.9566 28.1048 42.1864 28.486 42.3425C28.8671 42.4985 29.2753 42.5777 29.6871 42.5754H65.459C65.6754 42.8197 79.0502 55.71 79.0502 55.71C79.6452 56.2702 80.4317 56.5821 81.2489 56.5821C82.0662 56.5821 82.8526 56.2702 83.4477 55.71L89.0613 50.3128V81.6374H49.8581C49.5628 79.8916 48.7769 78.2658 47.5923 76.9499C49.1415 75.2369 49.9993 73.0096 49.9993 70.7C49.9993 68.3903 49.1415 66.163 47.5923 64.45C48.8048 63.1048 49.6009 61.4366 49.8841 59.6478C50.1673 57.859 49.9255 56.0265 49.1878 54.3725C48.4502 52.7185 47.2485 51.314 45.7285 50.3293C44.2085 49.3447 42.4355 48.8223 40.6244 48.8253H9.37488C7.56382 48.8222 5.79078 49.3447 4.27076 50.3293C2.75075 51.314 1.54906 52.7185 0.811438 54.3725C0.0738133 56.0265 -0.168062 57.8591 0.115143 59.6478C0.398349 61.4366 1.19447 63.1048 2.40696 64.4501C0.857789 66.1631 2.09389e-05 68.3904 2.09389e-05 70.7C2.09389e-05 73.0096 0.857789 75.2369 2.40696 76.9499C1.19447 78.2952 0.398349 79.9634 0.115143 81.7522C-0.168062 83.541 0.0738133 85.3735 0.811438 87.0275C1.54906 88.6816 2.75075 90.0861 4.27076 91.0707C5.79078 92.0553 7.56382 92.5778 9.37488 92.5747H40.6244C42.268 92.5728 43.8822 92.1387 45.3051 91.3159C46.7279 90.4932 47.9094 89.3107 48.7309 87.8872H92.1862C93.015 87.8872 93.8098 87.5579 94.3959 86.9719C94.9819 86.3858 95.3112 85.591 95.3112 84.7622V44.304C96.7474 43.1719 97.9133 41.734 98.7241 40.0949C99.5349 38.4557 99.9703 36.6564 99.9986 34.8279ZM6.24993 70.7C6.25075 69.8715 6.58026 69.0771 7.16613 68.4912C7.752 67.9054 8.54638 67.5759 9.37493 67.575H40.6244C41.4505 67.5792 42.2414 67.9102 42.824 68.4958C43.4067 69.0814 43.7338 69.8739 43.7338 70.7C43.7338 71.5261 43.4067 72.3186 42.824 72.9042C42.2414 73.4898 41.4505 73.8208 40.6244 73.825H9.37488C8.54635 73.8241 7.752 73.4946 7.16614 72.9088C6.58028 72.3229 6.25077 71.5286 6.24993 70.7ZM9.37493 55.0753H40.6244C41.0363 55.073 41.4445 55.1522 41.8256 55.3082C42.2067 55.4642 42.5532 55.694 42.8452 55.9844C43.1372 56.2749 43.3689 56.6201 43.527 57.0004C43.6852 57.3806 43.7666 57.7884 43.7666 58.2002C43.7666 58.612 43.6852 59.0198 43.527 59.4C43.3689 59.7803 43.1372 60.1255 42.8452 60.416C42.5532 60.7064 42.2067 60.9362 41.8256 61.0922C41.4445 61.2482 41.0363 61.3274 40.6244 61.3252H9.37488C8.54906 61.3206 7.7586 60.9894 7.17624 60.4039C6.59389 59.8183 6.267 59.026 6.267 58.2002C6.267 57.3744 6.59389 56.5821 7.17624 55.9966C7.7586 55.411 8.5491 55.0798 9.37493 55.0753ZM40.6244 86.3248H9.37488C8.54906 86.3203 7.7586 85.989 7.17624 85.4035C6.59389 84.8179 6.267 84.0257 6.267 83.1998C6.267 82.374 6.59389 81.5817 7.17624 80.9962C7.7586 80.4106 8.54906 80.0794 9.37488 80.0749H40.6244C41.0363 80.0726 41.4445 80.1518 41.8256 80.3078C42.2067 80.4639 42.5532 80.6937 42.8452 80.9841C43.1372 81.2745 43.3689 81.6197 43.527 82C43.6852 82.3803 43.7666 82.788 43.7666 83.1998C43.7666 83.6117 43.6852 84.0194 43.527 84.3997C43.3689 84.7799 43.1372 85.1252 42.8452 85.4156C42.5532 85.706 42.2067 85.9358 41.8256 86.0919C41.4445 86.2479 41.0363 86.327 40.6244 86.3248ZM81.2489 49.1542L70.4656 38.786C69.9272 38.2771 69.4983 37.6637 69.2051 36.9833C68.9119 36.3029 68.7606 35.5698 68.7604 34.829C68.7603 34.0881 68.9113 33.355 69.2042 32.6745C69.4972 31.994 69.9258 31.3804 70.4641 30.8713C71.6333 29.7713 73.1802 29.1621 74.7856 29.1695C76.3909 29.1769 77.9322 29.8003 79.0913 30.911C79.6848 31.4634 80.4675 31.7671 81.2782 31.7596C82.089 31.7521 82.8659 31.4339 83.4491 30.8706C84.6093 29.7748 86.1447 29.1643 87.7406 29.1643C89.3364 29.1643 90.8719 29.7748 92.032 30.8706C92.5704 31.3795 92.9993 31.9929 93.2924 32.6733C93.5856 33.3537 93.7369 34.0867 93.737 34.8275C93.7372 35.5684 93.5862 36.3015 93.2933 36.982C93.0004 37.6625 92.5718 38.276 92.0336 38.7852L81.2489 49.1542Z" fill="#4A7DE2"/>
</g>
<defs>
<clipPath id="clip0_140_1317">
<rect width="100" height="100" fill="white" transform="translate(0 0.387695)"/>
</clipPath>
</defs>
</svg>
