<svg width="142" height="142" viewBox="0 0 142 142" fill="none" xmlns="http://www.w3.org/2000/svg">
<path d="M130.906 56.7559H31.0625V121.1H130.906V56.7559Z" fill="white"/>
<path d="M88.75 103.348C96.1023 103.348 102.062 96.8908 102.062 88.9258C102.062 80.9608 96.1023 74.5039 88.75 74.5039C81.3977 74.5039 75.4375 80.9608 75.4375 88.9258C75.4375 96.8908 81.3977 103.348 88.75 103.348Z" fill="white"/>
<path d="M66.5624 118.881C66.5692 119.63 66.4721 120.377 66.2739 121.1C65.8733 122.632 65.0776 124.032 63.9664 125.16C62.2972 126.819 60.0407 127.752 57.6874 127.756H13.3124C12.1468 127.756 10.9926 127.527 9.91568 127.081C8.83876 126.635 7.86026 125.981 7.03608 125.157C6.21189 124.333 5.55817 123.354 5.11228 122.278C4.66639 121.201 4.43705 120.046 4.43738 118.881C4.43001 118.629 4.44486 118.376 4.48176 118.126V118.06C4.48176 118.038 4.45957 117.993 4.48176 117.971C4.59219 116.862 4.91616 115.785 5.43582 114.798L5.45801 114.776C5.87814 113.981 6.40848 113.249 7.03332 112.602C8.70257 110.943 10.9591 110.01 13.3124 110.006H57.6874C58.853 110.006 60.0072 110.235 61.0841 110.681C62.161 111.127 63.1395 111.78 63.9637 112.605C64.7878 113.429 65.4416 114.407 65.8875 115.484C66.3334 116.561 66.5627 117.715 66.5624 118.881Z" fill="white"/>
<path d="M66.5624 101.131C66.5601 103.082 65.9126 104.978 64.7208 106.522C64.7208 106.544 64.6986 106.544 64.6986 106.567C64.473 106.863 64.2284 107.145 63.9664 107.41C62.2972 109.069 60.0407 110.002 57.6874 110.006H13.3124C12.1468 110.006 10.9926 109.777 9.91568 109.331C8.83876 108.885 7.86026 108.231 7.03608 107.407C6.21189 106.583 5.55817 105.604 5.11228 104.528C4.66639 103.451 4.43705 102.296 4.43738 101.131C4.43001 100.879 4.44486 100.626 4.48176 100.376V100.31C4.48176 100.288 4.45957 100.243 4.48176 100.221C4.59219 99.1119 4.91616 98.0345 5.43582 97.0484L5.45801 97.0262C5.87814 96.2308 6.40848 95.4988 7.03332 94.8518C8.70257 93.193 10.9591 92.2601 13.3124 92.2559H57.6874C59.9269 92.2535 62.0844 93.0986 63.7265 94.6214C65.3687 96.1442 66.3738 98.2319 66.5402 100.465V100.598C66.5587 100.775 66.5661 100.953 66.5624 101.131Z" fill="white"/>
<path d="M66.5624 83.3806C66.5601 85.3317 65.9126 87.2273 64.7208 88.7721C64.7208 88.7942 64.6986 88.7942 64.6986 88.8165C64.473 89.113 64.2284 89.3947 63.9664 89.6596C62.2972 91.3185 60.0407 92.2514 57.6874 92.2556H13.3124C12.1468 92.2559 10.9926 92.0266 9.91568 91.5807C8.83876 91.1348 7.86026 90.4811 7.03608 89.6569C6.21189 88.8327 5.55817 87.8542 5.11228 86.7773C4.66639 85.7004 4.43705 84.5462 4.43738 83.3806C4.43001 83.1283 4.44486 82.8759 4.48176 82.6262V82.5596C4.48176 82.5375 4.45957 82.4931 4.48176 82.4709C4.59219 81.3617 4.91616 80.2843 5.43582 79.2981L5.45801 79.2759C5.87814 78.4806 6.40848 77.7485 7.03332 77.1015C8.70257 75.4427 10.9591 74.5098 13.3124 74.5056H57.6874C59.9269 74.5033 62.0844 75.3484 63.7265 76.8711C65.3687 78.3939 66.3738 80.4816 66.5402 82.715V82.8481C66.5587 83.0249 66.5661 83.2028 66.5624 83.3806ZM137.54 49.8109V49.8775C137.619 52.5256 136.815 55.1249 135.255 57.2659C135.233 57.2881 135.233 57.3103 135.211 57.3325C135.211 57.3354 135.21 57.3383 135.209 57.341C135.208 57.3437 135.206 57.3462 135.204 57.3483C135.202 57.3504 135.2 57.352 135.197 57.3531C135.194 57.3542 135.191 57.3547 135.188 57.3546C134.771 57.9478 134.295 58.4978 133.768 58.9965L130.906 61.7478L115.419 76.6356L115.375 76.5912L115.331 76.6356L96.9814 58.9965C96.2765 58.3293 95.6579 57.5765 95.1399 56.7556C93.7483 54.6182 93.0795 52.0906 93.2318 49.5446V49.4559C93.3238 47.6823 93.8169 45.9527 94.6739 44.3971C94.7028 44.3333 94.7401 44.2736 94.7849 44.2196C95.3638 43.1638 96.1051 42.2055 96.9814 41.3796C99.4578 39.0292 102.742 37.7188 106.156 37.7188C109.57 37.7188 112.854 39.0292 115.331 41.3796L115.375 41.424L115.419 41.3796C117.896 39.0292 121.18 37.7188 124.594 37.7188C128.008 37.7188 131.292 39.0292 133.768 41.3796C136.093 43.5794 137.449 46.6118 137.54 49.8109Z" fill="white"/>
<g opacity="0.1">
<path d="M85.4205 68.7812C80.5689 68.9375 75.977 71.01 72.6501 74.5447C69.3233 78.0795 67.5327 82.7885 67.6705 87.6406C67.5327 92.4928 69.3233 97.2018 72.6501 100.737C75.977 104.271 80.5689 106.344 85.4205 106.5C90.2721 106.344 94.864 104.271 98.1908 100.737C101.518 97.2018 103.308 92.4928 103.17 87.6406C103.308 82.7885 101.518 78.0795 98.1908 74.5447C94.864 71.01 90.2721 68.9375 85.4205 68.7812ZM85.4205 97.625C82.9233 97.4678 80.5894 96.3303 78.9271 94.4602C77.2648 92.5901 76.4088 90.139 76.5455 87.6406C76.4088 85.1423 77.2648 82.6911 78.9271 80.821C80.5894 78.9509 82.9233 77.8134 85.4205 77.6562C87.9176 77.8134 90.2515 78.9509 91.9139 80.821C93.5762 82.6911 94.4322 85.1423 94.2955 87.6406C94.4322 90.139 93.5761 92.5901 91.9138 94.4602C90.2515 96.3303 87.9176 97.4678 85.4205 97.625Z" fill="#4A7DE2"/>
<path d="M133.768 41.3796C131.292 39.0292 128.008 37.7188 124.593 37.7188C121.179 37.7188 117.895 39.0292 115.419 41.3796L115.374 41.424L115.33 41.3796C112.854 39.0292 109.57 37.7188 106.156 37.7188C102.741 37.7188 99.4574 39.0292 96.9811 41.3796C96.1047 42.2055 95.3635 43.1638 94.7845 44.2196C95.5535 43.254 96.5153 42.4592 97.6086 41.8859C98.7018 41.3126 99.9025 40.9734 101.134 40.8899C102.366 40.8064 103.601 40.9804 104.762 41.4009C105.923 41.8214 106.983 42.4791 107.875 43.3321C108.717 44.1169 109.828 44.5495 110.979 44.5413C112.13 44.533 113.235 44.0845 114.065 43.2878C115.71 41.7279 117.89 40.8583 120.156 40.8583C122.422 40.8583 124.602 41.7279 126.246 43.2878C130.781 47.4235 128.314 53.657 123.917 56.7555L110.937 69.2471L97.9573 56.7556C95.9014 54.8755 93.2353 52.507 93.2314 49.5446C93.0791 52.0906 93.7479 54.6182 95.1395 56.7556H33.4804C33.7565 57.6652 34.3172 58.4622 35.0801 59.0293C35.8429 59.5965 36.7677 59.9038 37.7182 59.9062H88.5054C88.8161 60.2612 107.809 78.5659 107.809 78.5659C108.658 79.3573 109.776 79.7973 110.937 79.7973C112.098 79.7973 113.216 79.3573 114.065 78.5659L122.031 70.889V115.375H66.3623C65.9409 112.897 64.8254 110.589 63.1451 108.719C63.7317 108.054 64.2519 107.333 64.6982 106.567C64.6982 106.544 64.7204 106.544 64.7204 106.522C65.9375 104.508 66.5748 102.197 66.562 99.8437C66.5589 96.5648 65.3417 93.4032 63.1451 90.9687C63.7317 90.3036 64.2519 89.5828 64.6982 88.8165C64.6982 88.7943 64.7204 88.7943 64.7204 88.7721C65.9375 86.758 66.5748 84.447 66.562 82.0937C66.562 74.7496 60.5936 71 53.2495 71H31.062V74.5056H13.312C11.691 74.5031 10.1007 74.9468 8.71524 75.7883C7.32979 76.6297 6.20274 77.8364 5.45762 79.2759C5.87068 78.7686 6.39179 78.3599 6.98293 78.0797C7.57406 77.7995 8.22031 77.6548 8.87449 77.6562H53.2495C54.4264 77.6562 55.5551 78.1237 56.3873 78.9559C57.2195 79.7881 57.687 80.9168 57.687 82.0937C57.687 83.2706 57.2195 84.3993 56.3873 85.2315C55.5551 86.0637 54.4264 86.5312 53.2495 86.5312H8.87449C7.79185 86.5285 6.74756 86.13 5.93837 85.4107C5.12919 84.6914 4.61098 83.7011 4.48137 82.6262C4.37525 83.8502 4.52473 85.0828 4.92032 86.2459C5.3159 87.409 5.94896 88.4772 6.7793 89.3826C7.60964 90.2881 8.61914 91.011 9.74374 91.5056C10.8683 92.0002 12.0835 92.2556 13.312 92.2556C11.691 92.2531 10.1007 92.6968 8.71524 93.5383C7.32979 94.3797 6.20274 95.5864 5.45762 97.0259C5.87068 96.5186 6.39179 96.1099 6.98293 95.8297C7.57406 95.5495 8.22031 95.4048 8.87449 95.4062H53.2495C59.0044 95.3331 59.0017 104.355 53.2495 104.281H8.87449C7.79185 104.279 6.74756 103.88 5.93837 103.161C5.12919 102.441 4.61098 101.451 4.48137 100.376C4.37525 101.6 4.52473 102.833 4.92032 103.996C5.3159 105.159 5.94896 106.227 6.7793 107.133C7.60964 108.038 8.61914 108.761 9.74374 109.256C10.8683 109.75 12.0835 110.006 13.312 110.006C11.691 110.003 10.1007 110.447 8.71524 111.288C7.32979 112.13 6.20274 113.336 5.45762 114.776C5.87068 114.269 6.39179 113.86 6.98293 113.58C7.57406 113.3 8.22031 113.155 8.87449 113.156H53.2495C59.0162 113.079 58.9804 122.124 53.2495 122.031H8.87449C7.79185 122.029 6.74756 121.63 5.93837 120.911C5.12919 120.191 4.61098 119.201 4.48137 118.126C4.37525 119.35 4.52473 120.583 4.92032 121.746C5.3159 122.909 5.94896 123.977 6.7793 124.883C7.60964 125.788 8.61914 126.511 9.74374 127.006C10.8683 127.5 12.0835 127.756 13.312 127.756H57.687C59.6537 127.755 61.5645 127.101 63.1189 125.896C64.6732 124.691 65.783 123.004 66.2736 121.099H130.706C130.841 120.684 130.908 120.249 130.906 119.812V62.369C132.595 60.9399 134.041 59.2465 135.188 57.3546C135.191 57.3547 135.194 57.3542 135.196 57.3531C135.199 57.352 135.202 57.3504 135.204 57.3483C135.206 57.3462 135.207 57.3437 135.209 57.341C135.21 57.3383 135.21 57.3354 135.21 57.3325C136.908 54.9369 137.695 52.0143 137.431 49.0901C137.167 46.1659 135.868 43.4319 133.768 41.3796Z" fill="#4A7DE2"/>
</g>
<path d="M107.608 87.6405C107.745 82.7886 105.954 78.08 102.628 74.5455C99.3012 71.0109 94.7097 68.9383 89.8584 68.7814C85.0071 68.9383 80.4156 71.0109 77.089 74.5455C73.7624 78.08 71.9716 82.7886 72.1087 87.6405C71.9716 92.4924 73.7624 97.2009 77.089 100.735C80.4156 104.27 85.0071 106.343 89.8584 106.5C94.7097 106.343 99.3012 104.27 102.628 100.735C105.954 97.2009 107.745 92.4924 107.608 87.6405ZM80.9835 87.6405C80.8479 85.1424 81.7043 82.6919 83.3664 80.8221C85.0284 78.9523 87.3617 77.8145 89.8584 77.6564C92.3552 77.8145 94.6884 78.9523 96.3505 80.8221C98.0126 82.6919 98.869 85.1425 98.7333 87.6406C98.869 90.1387 98.0126 92.5892 96.3505 94.4591C94.6884 96.3289 92.3552 97.4667 89.8584 97.6248C87.3616 97.4667 85.0284 96.3289 83.3663 94.459C81.7042 92.5892 80.8479 90.1386 80.9835 87.6405ZM26.6249 64.3439V61.9248C29.9158 61.3702 32.878 59.5992 34.9242 56.9629C36.9704 54.3266 37.9512 51.0175 37.6719 47.692C37.3927 44.3665 35.8739 41.2673 33.4167 39.0091C30.9595 36.751 27.7434 35.4987 24.4062 35.5006H19.9687C18.7957 35.4948 17.6727 35.0247 16.8453 34.1931C16.0179 33.3616 15.5534 32.2362 15.5534 31.0632C15.5534 29.8901 16.0179 28.7648 16.8453 27.9332C17.6727 27.1017 18.7957 26.6316 19.9687 26.6257H33.281C33.8658 26.6289 34.4454 26.5165 34.9866 26.295C35.5278 26.0734 36.0199 25.747 36.4345 25.3347C36.8491 24.9223 37.1782 24.432 37.4027 23.8921C37.6272 23.3521 37.7428 22.7731 37.7428 22.1883C37.7428 21.6035 37.6272 21.0245 37.4027 20.4845C37.1782 19.9446 36.8491 19.4543 36.4345 19.0419C36.0199 18.6296 35.5278 18.3032 34.9866 18.0816C34.4454 17.8601 33.8658 17.7477 33.281 17.7509H26.6248V15.5321C26.628 14.9473 26.5156 14.3677 26.294 13.8265C26.0724 13.2853 25.7461 12.7933 25.3337 12.3786C24.9213 11.964 24.4311 11.635 23.8911 11.4104C23.3511 11.1859 22.7721 11.0703 22.1873 11.0703C21.6026 11.0703 21.0235 11.1859 20.4836 11.4104C19.9436 11.635 19.4533 11.964 19.041 12.3786C18.6286 12.7933 18.3022 13.2853 18.0807 13.8265C17.8591 14.3677 17.7467 14.9473 17.7499 15.5321V17.9513C14.4591 18.5059 11.4968 20.2769 9.45063 22.9132C7.40443 25.5496 6.4237 28.8586 6.70293 32.1841C6.98216 35.5096 8.50097 38.6088 10.9581 40.867C13.4153 43.1252 16.6314 44.3774 19.9687 44.3755H24.4062C24.9909 44.3723 25.5706 44.4847 26.1118 44.7063C26.6529 44.9278 27.145 45.2542 27.5596 45.6666C27.9743 46.0789 28.3033 46.5692 28.5278 47.1092C28.7524 47.6491 28.868 48.2281 28.868 48.8129C28.868 49.3977 28.7524 49.9767 28.5278 50.5167C28.3033 51.0567 27.9743 51.5469 27.5596 51.9593C27.145 52.3717 26.6529 52.698 26.1118 52.9196C25.5706 53.1411 24.9909 53.2536 24.4062 53.2504H11.0939C9.91702 53.2504 8.78833 53.7179 7.95613 54.5501C7.12394 55.3823 6.65642 56.511 6.65642 57.6879C6.65642 58.8648 7.12394 59.9935 7.95613 60.8256C8.78833 61.6578 9.91702 62.1254 11.0939 62.1254H17.7502V64.3441C17.747 64.9289 17.8594 65.5085 18.0809 66.0497C18.3025 66.5909 18.6289 67.083 19.0412 67.4976C19.4536 67.9122 19.9439 68.2413 20.4838 68.4658C21.0238 68.6903 21.6028 68.8059 22.1876 68.8059C22.7724 68.8059 23.3514 68.6903 23.8914 68.4658C24.4313 68.2413 24.9216 67.9122 25.334 67.4976C25.7463 67.083 26.0727 66.5909 26.2943 66.0497C26.5158 65.5085 26.6282 64.9286 26.6249 64.3439Z" fill="#4A7DE2"/>
<path d="M141.998 48.9041C141.999 46.6557 141.542 44.4305 140.655 42.3645C139.767 40.2985 138.468 38.435 136.837 36.8875C134.002 34.2153 130.372 32.5424 126.498 32.1235C122.625 31.7046 118.721 32.5626 115.38 34.567C112.038 32.5598 108.131 31.7002 104.255 32.1192C100.379 32.5381 96.7461 34.2126 93.91 36.8875C92.016 38.6808 90.5743 40.8978 89.7035 43.3564C88.8327 45.815 88.5576 48.4452 88.9007 51.0308H42.1557C41.5709 51.0276 40.9913 51.14 40.4501 51.3615C39.9089 51.5831 39.4168 51.9095 39.0022 52.3218C38.5876 52.7342 38.2585 53.2245 38.034 53.7644C37.8095 54.3044 37.6939 54.8834 37.6939 55.4682C37.6939 56.053 37.8095 56.632 38.034 57.172C38.2585 57.7119 38.5876 58.2022 39.0022 58.6146C39.4168 59.0269 39.9089 59.3533 40.4501 59.5749C40.9913 59.7964 41.5709 59.9088 42.1557 59.9056H92.9517C93.259 60.2525 112.251 78.5567 112.251 78.5567C113.096 79.3522 114.213 79.7951 115.373 79.7951C116.534 79.7951 117.651 79.3522 118.496 78.5567L126.467 70.8927V115.374H70.7985C70.3791 112.895 69.2632 110.586 67.5811 108.717C69.7809 106.285 70.999 103.122 70.999 99.8425C70.999 96.5628 69.7809 93.4001 67.5811 90.9676C69.3028 89.0573 70.4333 86.6885 70.8354 84.1484C71.2376 81.6084 70.8941 79.0062 69.8467 76.6575C68.7993 74.3087 67.0929 72.3144 64.9345 70.9162C62.7761 69.518 60.2584 68.7761 57.6867 68.7805H13.3123C10.7406 68.7761 8.2229 69.518 6.06448 70.9162C3.90606 72.3144 2.19967 74.3087 1.15224 76.6575C0.104815 79.0062 -0.238648 81.6084 0.163503 84.1485C0.565655 86.6885 1.69615 89.0574 3.41788 90.9677C1.21806 93.4001 2.97332e-05 96.5629 2.97332e-05 99.8426C2.97332e-05 103.122 1.21806 106.285 3.41788 108.717C1.69615 110.628 0.565655 112.997 0.163503 115.537C-0.238648 118.077 0.104815 120.679 1.15224 123.028C2.19967 125.376 3.90606 127.371 6.06448 128.769C8.2229 130.167 10.7406 130.909 13.3123 130.905H57.6867C60.0206 130.902 62.3127 130.285 64.3332 129.117C66.3536 127.949 68.0313 126.27 69.1979 124.248H130.904C132.081 124.248 133.21 123.781 134.042 122.949C134.874 122.116 135.342 120.988 135.342 119.811V62.3603C137.381 60.7527 139.037 58.7109 140.188 56.3832C141.34 54.0556 141.958 51.5007 141.998 48.9041ZM8.87489 99.8426C8.87607 98.666 9.34397 97.538 10.1759 96.7061C11.0078 95.8742 12.1359 95.4063 13.3124 95.4051H57.6867C58.8597 95.4109 59.9827 95.8811 60.8101 96.7126C61.6375 97.5441 62.102 98.6695 62.102 99.8425C62.102 101.016 61.6375 102.141 60.8101 102.972C59.9827 103.804 58.8597 104.274 57.6867 104.28H13.3123C12.1358 104.279 11.0078 103.811 10.1759 102.979C9.344 102.147 8.8761 101.019 8.87489 99.8426ZM13.3124 77.6554H57.6867C58.2715 77.6522 58.8511 77.7646 59.3923 77.9862C59.9335 78.2077 60.4256 78.5341 60.8402 78.9465C61.2548 79.3588 61.5839 79.8491 61.8084 80.3891C62.0329 80.929 62.1485 81.508 62.1485 82.0928C62.1485 82.6776 62.0329 83.2566 61.8084 83.7966C61.5839 84.3366 61.2548 84.8268 60.8402 85.2392C60.4256 85.6516 59.9335 85.9779 59.3923 86.1995C58.8511 86.4211 58.2715 86.5335 57.6867 86.5303H13.3123C12.1397 86.5238 11.0172 86.0535 10.1903 85.222C9.36332 84.3905 8.89913 83.2655 8.89913 82.0928C8.89913 80.9201 9.36332 79.7951 10.1903 78.9636C11.0172 78.1322 12.1397 77.6618 13.3124 77.6554ZM57.6867 122.03H13.3123C12.1397 122.023 11.0172 121.553 10.1903 120.721C9.36332 119.89 8.89913 118.765 8.89913 117.592C8.89913 116.42 9.36332 115.295 10.1903 114.463C11.0172 113.632 12.1397 113.161 13.3123 113.155H57.6867C58.2715 113.152 58.8511 113.264 59.3923 113.486C59.9335 113.707 60.4256 114.034 60.8402 114.446C61.2548 114.858 61.5839 115.349 61.8084 115.889C62.0329 116.429 62.1485 117.008 62.1485 117.592C62.1485 118.177 62.0329 118.756 61.8084 119.296C61.5839 119.836 61.2548 120.326 60.8402 120.739C60.4256 121.151 59.9335 121.477 59.3923 121.699C58.8511 121.921 58.2715 122.033 57.6867 122.03ZM115.373 69.2474L100.061 54.5246C99.2966 53.802 98.6875 52.9309 98.2712 51.9648C97.8548 50.9986 97.64 49.9577 97.6398 48.9057C97.6396 47.8537 97.854 46.8126 98.27 45.8463C98.686 44.88 99.2947 44.0088 100.059 43.2858C101.719 41.7238 103.916 40.8587 106.196 40.8692C108.475 40.8797 110.664 41.7649 112.31 43.3422C113.152 44.1266 114.264 44.5578 115.415 44.5472C116.566 44.5365 117.67 44.0846 118.498 43.2848C120.145 41.7287 122.325 40.8618 124.592 40.8618C126.858 40.8618 129.038 41.7287 130.685 43.2848C131.45 44.0074 132.059 44.8785 132.475 45.8446C132.892 46.8108 133.106 47.8517 133.107 48.9037C133.107 49.9557 132.892 50.9966 132.476 51.9629C132.061 52.9292 131.452 53.8005 130.688 54.5235L115.373 69.2474Z" fill="#4A7DE2"/>
<path d="M77.6562 42.1562C80.107 42.1562 82.0938 40.1695 82.0938 37.7188C82.0938 35.268 80.107 33.2812 77.6562 33.2812C75.2055 33.2812 73.2188 35.268 73.2188 37.7188C73.2188 40.1695 75.2055 42.1562 77.6562 42.1562Z" fill="white"/>
</svg>
