<svg width="60" height="61" viewBox="0 0 60 61" fill="none" xmlns="http://www.w3.org/2000/svg">
<circle cx="30" cy="30.6484" r="30" fill="#4A7DE2" fill-opacity="0.1"/>
<path d="M29.717 20.3359C33.8884 20.3559 37.9397 22.923 39.6993 26.7825C40.6633 28.8952 40.9234 31.3175 40.4573 33.5845C40.4573 33.5845 40.3396 34.0023 40.0901 34.1989C39.6605 34.5367 38.9449 34.4355 38.6341 33.9599C38.3281 33.4927 38.5859 32.8324 38.6459 32.2003C39.0319 28.1219 36.3507 23.9294 32.2523 22.71C29.1415 21.7837 25.548 22.6888 23.2399 25.0523C20.5786 27.7782 19.8913 32.258 21.8039 35.7019C23.1339 38.0983 25.6033 39.8274 28.3105 40.2417C29.3698 40.4041 30.4574 40.3747 31.512 40.1593L31.5979 40.1452C31.6756 40.1393 31.6944 40.1358 31.7721 40.1405C32.3241 40.1734 32.7843 40.736 32.7019 41.2857C32.6349 41.7436 32.2276 42.0614 31.745 42.152C27.5431 42.9512 22.9162 41.0762 20.4845 37.3827C18.7648 34.7709 18.2352 31.4246 19.0756 28.395C20.3315 23.8729 24.7618 20.4054 29.5393 20.3371C29.5993 20.3359 29.6582 20.3359 29.717 20.3359Z" fill="#4A7DE2"/>
<path d="M37.6871 39.344V36.343C37.6921 36.16 37.7091 36.11 37.7431 36.012C37.8661 35.66 38.1991 35.391 38.5751 35.349C38.6831 35.336 38.7091 35.343 38.7431 35.344C38.9251 35.359 38.9751 35.379 39.0701 35.419C39.3981 35.554 39.6411 35.875 39.6811 36.231C39.6871 36.28 39.6861 36.293 39.6881 36.343V39.344H42.6891C42.7081 39.345 42.7261 39.3449 42.7451 39.346C42.9741 39.365 43.0471 39.4 43.1731 39.469C43.7491 39.788 43.8551 40.744 43.2681 41.161C43.1001 41.28 42.8941 41.339 42.6891 41.345H39.6881V44.347C39.6661 45.113 38.6551 45.659 38.0201 45.093C37.8391 44.93 37.7201 44.7 37.6931 44.459C37.6871 44.409 37.6881 44.396 37.6871 44.347V41.345H34.6851C34.4561 41.339 34.3801 41.308 34.2511 41.246C33.6371 40.95 33.5081 39.953 34.1061 39.529C34.2741 39.41 34.4801 39.35 34.6851 39.344H37.6871ZM28.6821 26.232V25.338C28.6901 25.128 28.7081 25.093 28.7401 25.003C28.8621 24.66 29.1831 24.397 29.5471 24.347C29.6771 24.329 29.7091 24.338 29.7511 24.34C30.2151 24.387 30.6121 24.747 30.6741 25.201C30.6821 25.262 30.6811 25.277 30.6831 25.338V26.23C31.9911 26.476 33.1971 27.213 33.5841 28.534C33.6481 28.755 33.6821 28.985 33.6851 29.216C33.6851 29.216 33.6701 29.534 33.5491 29.742C33.2451 30.265 32.4151 30.391 31.9721 29.941C31.5261 29.488 31.9011 28.773 30.7801 28.334C30.7481 28.322 30.7161 28.31 30.6831 28.299V30.437C31.9371 30.679 33.0901 31.38 33.5291 32.572C33.8091 33.335 33.6831 34.227 33.2241 34.903C32.6611 35.734 31.7221 36.261 30.6831 36.464V37.343C30.6751 37.596 30.6401 37.67 30.5711 37.804C30.2631 38.399 29.2871 38.517 28.8661 37.92C28.7741 37.79 28.7131 37.638 28.6921 37.48C28.6831 37.419 28.6851 37.404 28.6821 37.343V36.457C28.1301 36.346 27.5991 36.142 27.1281 35.842C26.3511 35.348 25.7371 34.534 25.6851 33.578C25.6491 32.913 26.2751 32.298 26.9401 32.476C27.3691 32.591 27.6561 33.015 27.6831 33.474C27.7161 33.952 28.2181 34.203 28.5861 34.347C28.6181 34.359 28.6501 34.371 28.6821 34.382V32.246C27.3841 31.996 26.1641 31.249 25.7821 29.943C25.5311 29.085 25.7961 28.117 26.4031 27.446C26.9981 26.787 27.8241 26.399 28.6821 26.232ZM30.6831 32.503V34.394C30.9441 34.301 31.1821 34.168 31.3781 33.993C31.5511 33.839 31.7031 33.632 31.6821 33.398C31.6361 32.887 31.0871 32.641 30.6831 32.503ZM28.6821 28.288C28.4201 28.381 28.1831 28.514 27.9881 28.688C27.8161 28.841 27.6651 29.045 27.6841 29.279C27.7251 29.788 28.2721 30.039 28.6821 30.179V28.288Z" fill="#4A7DE2"/>
<path d="M29.72 17.3493C32.4734 17.3577 35.226 18.1819 37.5181 19.727C40.2403 21.5606 42.2841 24.3826 43.1712 27.5505C44.0074 30.5416 43.8051 33.8382 42.6371 36.6786C42.2289 37.6711 41.0029 37.4511 40.7405 36.6737C40.5898 36.2244 40.8749 35.7271 41.0397 35.2468C42.4277 31.1974 41.4911 26.449 38.5396 23.2302C36.0289 20.4931 32.1897 19.0379 28.4784 19.4114C26.3901 19.6223 24.3647 20.387 22.6605 21.6087L22.5289 21.6993C22.2714 21.838 22.1808 21.8408 22.016 21.8401C21.3425 21.8401 20.7801 21.0244 21.1359 20.3658C21.2604 20.1337 21.4918 19.9816 21.7189 19.8253C24.0272 18.2328 26.8287 17.3641 29.6443 17.35C29.6698 17.35 29.6945 17.3493 29.72 17.3493ZM19.2853 22.6013C20.0436 22.6763 20.4702 23.6051 20.0146 24.2234C19.9941 24.251 19.9743 24.2793 19.9538 24.3069C16.9932 28.4079 16.9373 34.4615 20.1625 38.6517C22.369 41.5189 25.9154 43.3024 29.553 43.342C31.2035 43.3597 32.8511 43.035 34.3799 42.3919L34.4648 42.3608C34.7478 42.2844 34.8362 42.302 34.9968 42.3395C35.7863 42.5249 36.087 43.8471 35.0987 44.2609C30.7819 46.0649 25.7491 45.5541 21.9162 42.996C18.1711 40.496 15.753 36.1141 15.6837 31.5525C15.6377 28.5296 16.5928 25.5145 18.3805 23.0689C18.3805 23.0689 18.7943 22.597 19.2853 22.6013Z" fill="#4A7DE2"/>
</svg>
