<svg width="50" height="50" viewBox="0 0 50 50" fill="none" xmlns="http://www.w3.org/2000/svg">
<path d="M6.90381 24.9716C7.35615 20.8622 9.18014 17.1652 11.9084 14.3482L14.9946 17.4342L16.4226 16.0062L13.3925 12.9763C16.2944 10.5775 19.9543 9.06217 23.9598 8.84297V13.8642H25.9794V8.84297C29.9849 9.06216 33.645 10.5775 36.5468 12.9764L33.6392 15.8836L35.0671 17.3117L38.0309 14.3483C40.7591 17.1653 42.583 20.8622 43.0354 24.9716H38.7875V26.9911H43.1453C43.1428 31.3738 41.5881 35.3924 38.9992 38.5295L35.5454 35.0759L34.1174 36.5039L37.6286 40.015L37.6157 40.0274L39.0206 41.4782C42.8083 37.8105 45.1648 32.6696 45.1648 26.9802C45.1648 15.8322 36.1226 6.7959 24.9696 6.7959C13.8166 6.7959 4.77441 15.8322 4.77441 26.9802C4.77441 32.5186 7.00761 37.5376 10.6206 41.1836L12.0551 39.762C12.0487 39.7557 12.0425 39.7493 12.0361 39.7428L15.0706 36.7082L13.6426 35.2802L10.6958 38.2271C8.25369 35.136 6.79642 31.2343 6.79393 26.9911H10.8862V24.9716H6.90381Z" fill="#33CBCC" stroke="#33CBCC" stroke-width="0.874206"/>
<path d="M17.0783 28.9687C16.9215 29.2616 16.9386 29.6174 17.1232 29.8945L18.1397 31.4196C19.1768 32.9751 20.8415 33.904 22.593 33.904H24.1873V34.8059C24.1873 35.304 24.5912 35.7079 25.0893 35.7079C25.5873 35.7079 25.9912 35.304 25.9912 34.8059V33.904H27.5855C29.337 33.904 31.0018 32.9751 32.0389 31.4196L33.0554 29.8945C33.24 29.6175 33.2571 29.2616 33.1003 28.9687C32.943 28.6754 32.6375 28.4922 32.3049 28.4922H30.2135C28.7381 28.4922 27.2992 29.1586 26.2665 30.3199L25.9912 30.6295V27.5903V26.6163C26.7671 26.3895 27.3441 25.6018 27.3441 24.6589C27.3441 23.5398 26.5351 22.6295 25.5402 22.6295L24.7162 22.6502C24.6916 22.6309 24.6383 22.5423 24.6383 22.404C24.6383 22.2679 24.6902 22.1799 24.6404 22.1785H26.4422C26.9403 22.1785 27.3441 21.7746 27.3441 21.2766C27.3441 20.7785 26.9403 20.3746 26.4422 20.3746H25.9912C25.9912 19.8766 25.5873 19.4727 25.0893 19.4727C24.5912 19.4727 24.1873 19.8766 24.1873 20.3746V20.4466C23.4114 20.6734 22.8344 21.4611 22.8344 22.404C22.8344 23.5231 23.6434 24.4334 24.6383 24.4334L25.4623 24.4128C25.4869 24.4321 25.5402 24.5206 25.5402 24.6589C25.5402 24.795 25.4883 24.883 25.5381 24.8844H23.7363C23.2383 24.8844 22.8344 25.2883 22.8344 25.7863C22.8344 26.2844 23.2383 26.6883 23.7363 26.6883H24.1873V27.5903V30.6295L23.912 30.3198C22.8793 29.1586 21.4405 28.4922 19.9651 28.4922H17.8736C17.5411 28.4922 17.2355 28.6754 17.0783 28.9687ZM27.615 31.5187C28.3156 30.7303 29.2383 30.2961 30.2135 30.2961H30.62L30.5381 30.419C29.836 31.4716 28.7324 32.1 27.5855 32.1H27.098L27.615 31.5187ZM19.9651 30.2961C20.9402 30.2961 21.8628 30.7303 22.5635 31.5187L23.0805 32.1H22.593C21.4462 32.1 20.3425 31.4716 19.6405 30.419L19.5586 30.2961H19.9651Z" fill="#33CBCC"/>
<path d="M29.0575 26.5063C29.2195 26.6283 29.4098 26.6868 29.5978 26.6868C29.8722 26.6868 30.143 26.5622 30.3201 26.3261C31.0269 25.384 31.4008 24.2619 31.4008 23.0812C31.4008 21.8974 31.0256 20.773 30.3152 19.8296C30.017 19.4328 29.4516 19.3513 29.0521 19.6517C28.6545 19.9511 28.5747 20.5166 28.8742 20.9148C29.3472 21.5428 29.5969 22.292 29.5969 23.0812C29.5969 23.8682 29.3481 24.616 28.8772 25.2436C28.5782 25.6417 28.6589 26.2072 29.0575 26.5063ZM21.1191 19.6539C20.7209 19.354 20.1559 19.4341 19.8564 19.8331C19.1477 20.7756 18.7734 21.8987 18.7734 23.0812C18.7734 24.2636 19.1477 25.3867 19.8564 26.3292C20.0335 26.5652 20.3043 26.6894 20.5783 26.6894C20.7668 26.6894 20.957 26.6305 21.1191 26.5084C21.5176 26.2094 21.5978 25.6439 21.2983 25.2458C20.8267 24.6182 20.5773 23.8695 20.5773 23.0812C20.5773 22.2929 20.8267 21.5441 21.2983 20.9166C21.5977 20.5184 21.5176 19.9529 21.1191 19.6539Z" fill="#33CBCC"/>
<path d="M30.6763 37.6846L29.2272 35.7738C29.2108 35.7525 29.19 35.7353 29.1662 35.7235C29.1423 35.7117 29.1162 35.7056 29.0897 35.7056H21.0954C21.0689 35.7056 21.0428 35.7117 21.0189 35.7235C20.9951 35.7353 20.9743 35.7525 20.9579 35.7738L19.5088 37.6846C19.4844 37.717 19.4716 37.757 19.4727 37.7978C19.4738 37.8386 19.4886 37.8778 19.5147 37.9087L24.961 44.3904C24.9681 44.3994 24.9761 44.4076 24.9849 44.4147C24.9979 44.4252 25.0124 44.4334 25.028 44.4391H25.0399C25.0558 44.4444 25.0723 44.4473 25.089 44.4476C25.106 44.4472 25.1229 44.4443 25.1392 44.4391H25.1511C25.1663 44.4331 25.1808 44.4253 25.1942 44.416C25.2038 44.4088 25.2122 44.4001 25.2193 44.3904L30.6704 37.9087C30.6965 37.8778 30.7113 37.8386 30.7124 37.7978C30.7135 37.757 30.7007 37.717 30.6763 37.6846ZM28.6305 36.06L26.8705 37.5507L25.4943 36.06H28.6305ZM25.0926 36.1416L26.4544 37.6164H23.7498L25.0926 36.1416ZM24.6944 36.06L23.3361 37.5495L21.5761 36.06H24.6944ZM21.1229 36.1355L22.871 37.6164H20.0014L21.1229 36.1355ZM20.0241 37.9709H23.2189L24.7195 43.5598L20.0241 37.9709ZM25.0926 43.6109L23.5788 37.9709H26.6278L25.0926 43.6109ZM25.468 43.5586L26.9865 37.9733H30.161L25.468 43.5586ZM27.3368 37.6164L29.0705 36.1477L30.1849 37.6164H27.3368Z" fill="#33CBCC"/>
</svg>
