<svg width="180" height="180" viewBox="0 0 180 180" fill="none" xmlns="http://www.w3.org/2000/svg">
<circle cx="90" cy="90" r="90" fill="#F6F7F7"/>
<path d="M56.5 89C56.3674 89 56.2402 88.9473 56.1464 88.8536L52.6109 92.3891L56.1464 88.8536C56.0527 88.7598 56 88.6326 56 88.5C56 88.3674 56.0527 88.2402 56.1464 88.1464C56.2402 88.0527 56.3674 88 56.5 88H122.5C122.633 88 122.76 88.0527 122.854 88.1464C122.947 88.2402 123 88.3674 123 88.5C123 88.6326 122.947 88.7598 122.854 88.8536C122.76 88.9473 122.633 89 122.5 89H56.5Z" fill="#C1C3C4" stroke="#C1C3C4" stroke-width="10"/>
</svg>
