<svg width="178" height="178" viewBox="0 0 178 178" fill="none" xmlns="http://www.w3.org/2000/svg">
<path d="M100.518 51.9873C95.474 51.9873 90.5436 53.4833 86.3503 56.286C82.157 59.0886 78.8891 63.0721 76.9601 67.7324C75.0312 72.3927 74.5278 77.5204 75.5137 82.4668C76.4996 87.4133 78.9304 91.9561 82.4987 95.5208C86.067 99.0854 90.6124 101.512 95.5598 102.492C100.507 103.473 105.634 102.965 110.293 101.031C114.951 99.0971 118.931 95.8251 121.73 91.6289C124.528 87.4327 126.019 82.5007 126.014 77.457C126 70.7017 123.308 64.2275 118.529 59.4533C113.75 54.679 107.273 51.9942 100.518 51.9873ZM100.518 74.8394C102.298 74.8429 104.02 75.4719 105.383 76.6164C106.747 77.7609 107.665 79.3481 107.976 81.1007C108.288 82.8532 107.974 84.6596 107.089 86.2042C106.205 87.7487 104.805 88.9332 103.135 89.5505V91.3044C103.135 91.9986 102.86 92.6644 102.369 93.1553C101.878 93.6462 101.212 93.922 100.518 93.922C99.8235 93.922 99.1577 93.6462 98.6668 93.1553C98.1759 92.6644 97.9001 91.9986 97.9001 91.3044V89.5505C96.4395 89.0161 95.1776 88.0474 94.2838 86.7745C93.39 85.5017 92.9072 83.9858 92.9004 82.4305C92.9004 81.7363 93.1762 81.0705 93.6671 80.5796C94.158 80.0887 94.8238 79.8129 95.5181 79.8129C96.2123 79.8129 96.8781 80.0887 97.369 80.5796C97.8599 81.0705 98.1357 81.7363 98.1357 82.4305C98.1008 82.7626 98.136 83.0982 98.2391 83.4157C98.3422 83.7333 98.511 84.0256 98.7343 84.2737C98.9577 84.5218 99.2307 84.7202 99.5357 84.856C99.8407 84.9918 100.171 85.062 100.505 85.062C100.839 85.062 101.169 84.9918 101.474 84.856C101.779 84.7202 102.052 84.5218 102.275 84.2737C102.498 84.0256 102.667 83.7333 102.77 83.4157C102.873 83.0982 102.909 82.7626 102.874 82.4305C102.874 81.8057 102.625 81.2065 102.184 80.7647C101.742 80.3229 101.143 80.0747 100.518 80.0747C98.731 80.0893 96.9968 79.4711 95.6223 78.3294C94.2478 77.1878 93.3217 75.5965 93.0081 73.8375C92.6946 72.0784 93.0138 70.2651 93.9092 68.7189C94.8046 67.1727 96.2184 65.9933 97.9001 65.3897V63.6358C97.9001 62.9416 98.1759 62.2758 98.6668 61.7849C99.1577 61.294 99.8235 61.0182 100.518 61.0182C101.212 61.0182 101.878 61.294 102.369 61.7849C102.86 62.2758 103.135 62.9416 103.135 63.6358V65.442C104.589 65.976 105.845 66.9418 106.734 68.2097C107.623 69.4777 108.102 70.9873 108.109 72.5358C108.109 73.2301 107.833 73.8959 107.342 74.3868C106.851 74.8777 106.186 75.1535 105.491 75.1535C104.797 75.1535 104.131 74.8777 103.64 74.3868C103.149 73.8959 102.874 73.2301 102.874 72.5358C102.877 72.2255 102.819 71.9176 102.701 71.6301C102.584 71.3427 102.411 71.0816 102.191 70.8622C101.972 70.6427 101.711 70.4693 101.423 70.3521C101.136 70.235 100.828 70.1764 100.518 70.1799C99.8929 70.1799 99.2937 70.4282 98.8519 70.87C98.4101 71.3118 98.1619 71.911 98.1619 72.5358C98.1619 73.1607 98.4101 73.7599 98.8519 74.2017C99.2937 74.6435 99.8929 74.8917 100.518 74.8917V74.8394ZM65.4413 74.8394H57.5884C56.8941 74.8394 56.2283 75.1151 55.7374 75.6061C55.2465 76.097 54.9707 76.7628 54.9707 77.457C54.9707 78.1513 55.2465 78.8171 55.7374 79.308C56.2283 79.7989 56.8941 80.0747 57.5884 80.0747H65.4413C66.1355 80.0747 66.8013 79.7989 67.2922 79.308C67.7832 78.8171 68.0589 78.1513 68.0589 77.457C68.0589 76.7628 67.7832 76.097 67.2922 75.6061C66.8013 75.1151 66.1355 74.8394 65.4413 74.8394ZM143.395 74.8394H135.542C134.848 74.8394 134.182 75.1151 133.691 75.6061C133.2 76.097 132.924 76.7628 132.924 77.457C132.924 78.1513 133.2 78.8171 133.691 79.308C134.182 79.7989 134.848 80.0747 135.542 80.0747H143.395C144.089 80.0747 144.755 79.7989 145.246 79.308C145.737 78.8171 146.012 78.1513 146.012 77.457C146.012 76.7628 145.737 76.097 145.246 75.6061C144.755 75.1151 144.089 74.8394 143.395 74.8394Z" fill="#4A7DE2"/>
<path d="M163.733 29.0029H37.3272C34.2579 29.0096 31.3148 30.2247 29.1347 32.3852C26.9547 34.5456 25.7131 37.4777 25.6787 40.5468C22.6345 40.5808 19.7247 41.8052 17.5721 43.9578C15.4194 46.1104 14.195 49.0203 14.161 52.0644C11.092 52.0988 8.15989 53.3404 5.99942 55.5205C3.83895 57.7005 2.62388 60.6437 2.61719 63.7129V137.321C2.61718 140.413 3.8436 143.379 6.02737 145.567C8.21114 147.756 11.1739 148.989 14.2657 148.996H140.698C143.763 148.982 146.699 147.764 148.874 145.604C151.048 143.445 152.286 140.517 152.32 137.452C155.369 137.418 158.283 136.19 160.436 134.032C162.589 131.873 163.811 128.957 163.838 125.908C166.909 125.881 169.845 124.641 172.007 122.46C174.169 120.278 175.382 117.331 175.382 114.26V40.6515C175.375 37.5642 174.146 34.6054 171.962 32.4223C169.779 30.2393 166.821 29.0098 163.733 29.0029ZM152.216 132.217H25.7834C24.0825 132.217 22.4512 131.541 21.2485 130.338C20.0458 129.136 19.3701 127.504 19.3701 125.804V52.1953C19.3699 50.5124 20.0312 48.8968 21.2114 47.6971C22.3915 46.4973 23.996 45.8095 25.6787 45.782V114.26C25.6787 117.349 26.9059 120.312 29.0904 122.496C30.1721 123.578 31.4562 124.436 32.8695 125.022C34.2828 125.607 35.7975 125.908 37.3272 125.908H158.603C158.582 127.589 157.9 129.193 156.705 130.374C155.509 131.555 153.896 132.217 152.216 132.217ZM164.1 97.69C164.1 98.3842 163.824 99.05 163.333 99.5409C162.842 100.032 162.176 100.308 161.482 100.308C158.379 100.308 155.403 101.54 153.208 103.735C151.014 105.929 149.781 108.905 149.781 112.009C149.781 112.703 149.506 113.369 149.015 113.859C148.524 114.35 147.858 114.626 147.164 114.626H53.8969C53.2027 114.626 52.5368 114.35 52.0459 113.859C51.555 113.369 51.2792 112.703 51.2792 112.009C51.2792 108.905 50.0465 105.929 47.8521 103.735C45.6578 101.54 42.6816 100.308 39.5784 100.308C38.8841 100.308 38.2183 100.032 37.7274 99.5409C37.2365 99.05 36.9607 98.3842 36.9607 97.69V57.2473C36.9607 56.5531 37.2365 55.8873 37.7274 55.3964C38.2183 54.9055 38.8841 54.6297 39.5784 54.6297C42.6816 54.6297 45.6578 53.3969 47.8521 51.2026C50.0465 49.0082 51.2792 46.0321 51.2792 42.9288C51.2792 42.2346 51.555 41.5688 52.0459 41.0779C52.5368 40.587 53.2027 40.3112 53.8969 40.3112H147.164C147.858 40.3112 148.524 40.587 149.015 41.0779C149.506 41.5688 149.781 42.2346 149.781 42.9288C149.781 46.0321 151.014 49.0082 153.208 51.2026C155.403 53.3969 158.379 54.6297 161.482 54.6297C162.176 54.6297 162.842 54.9055 163.333 55.3964C163.824 55.8873 164.1 56.5531 164.1 57.2473V97.69Z" fill="#4A7DE2"/>
</svg>
