<svg width="180" height="180" viewBox="0 0 180 180" fill="none" xmlns="http://www.w3.org/2000/svg">
<circle cx="90" cy="90" r="90" fill="#F6F7F7"/>
<path d="M92.7934 54C92.7934 52.6193 91.6741 51.5 90.2934 51.5C88.9127 51.5 87.7934 52.6193 87.7934 54V87.7934H54C52.6193 87.7934 51.5 88.9127 51.5 90.2934C51.5 91.6741 52.6193 92.7934 54 92.7934H87.7934V126.587C87.7934 127.968 88.9127 129.087 90.2934 129.087C91.6741 129.087 92.7934 127.968 92.7934 126.587V92.7934H126.587C127.968 92.7934 129.087 91.6741 129.087 90.2934C129.087 88.9127 127.968 87.7934 126.587 87.7934H92.7934V54Z" stroke="#8D9092" stroke-opacity="0.5" stroke-width="5" stroke-linecap="round" stroke-linejoin="round"/>
</svg>
