<svg width="30" height="31" viewBox="0 0 30 31" fill="none" xmlns="http://www.w3.org/2000/svg">
<path d="M8.1483 8.89696C6.44735 10.601 5.44172 12.8772 5.32735 15.2822C5.21298 17.6871 5.99806 20.0485 7.52963 21.9063C9.0612 23.764 11.2295 24.985 13.6122 25.3314C15.9948 25.6777 18.421 25.1247 20.4182 23.7799C22.4153 22.4351 23.8402 20.395 24.4153 18.057C24.9905 15.7191 24.6746 13.2507 23.5292 11.1329C22.3838 9.01512 20.491 7.3996 18.2196 6.60112C15.9482 5.80263 13.4609 5.87839 11.2423 6.81362C10.0865 7.30252 9.03597 8.0099 8.1483 8.89696ZM15.0277 23.8704C12.8811 23.8939 10.813 23.0637 9.27847 21.5624C7.74393 20.0611 6.86862 18.0117 6.84511 15.865C6.8216 13.7184 7.65181 11.6503 9.15309 10.1158C10.6544 8.58123 12.7038 7.70593 14.8504 7.68242H15.0277V23.8704Z" fill="black"/>
<path d="M15.0089 30.75C12.0414 30.7518 9.14007 29.8733 6.67198 28.2257C4.20388 26.5782 2.27992 24.2356 1.14351 21.4943C0.00709697 18.7531 -0.2907 15.7364 0.287795 12.8258C0.866291 9.91528 2.29508 7.24172 4.3934 5.1434C6.49172 3.04508 9.16528 1.61629 12.0758 1.0378C14.9864 0.4593 18.0031 0.757097 20.7443 1.89351C23.4856 3.02992 25.8282 4.95388 27.4757 7.42198C29.1233 9.89007 30.0018 12.7914 30 15.7589C29.993 19.7326 28.4113 23.5416 25.6014 26.3514C22.7916 29.1613 18.9826 30.743 15.0089 30.75ZM15.0089 3.15249C12.5156 3.15249 10.0782 3.89184 8.00514 5.27704C5.93203 6.66225 4.31624 8.6311 3.36209 10.9346C2.40794 13.2381 2.15829 15.7729 2.64471 18.2182C3.13113 20.6636 4.33178 22.9099 6.09481 24.6729C7.85784 26.436 10.1041 27.6366 12.5495 28.123C14.9949 28.6094 17.5296 28.3598 19.8331 27.4056C22.1366 26.4515 24.1055 24.8357 25.4907 22.7626C26.8759 20.6895 27.6152 18.2522 27.6152 15.7589C27.6106 12.4169 26.2809 9.21313 23.9177 6.84999C21.5546 4.48685 18.3508 3.15718 15.0089 3.15249Z" fill="#D9D9D9"/>
</svg>
