<svg width="40" height="41" viewBox="0 0 40 41" fill="none" xmlns="http://www.w3.org/2000/svg">
<path d="M10.8638 11.5565C8.59582 13.8285 7.25498 16.8635 7.10249 20.0701C6.94999 23.2767 7.99677 26.4252 10.0389 28.9022C12.0809 31.3792 14.9721 33.0072 18.1489 33.469C21.3257 33.9308 24.5607 33.1934 27.2236 31.4004C29.8864 29.6073 31.7863 26.8872 32.5531 23.7699C33.32 20.6526 32.8988 17.3614 31.3716 14.5377C29.8445 11.714 27.3207 9.55998 24.2922 8.49534C21.2636 7.43069 17.9472 7.5317 14.989 8.77868C13.448 9.43054 12.0473 10.3737 10.8638 11.5565ZM20.0363 31.521C17.1741 31.5523 14.4167 30.4454 12.3706 28.4437C10.3246 26.442 9.15752 23.7094 9.12617 20.8472C9.09482 17.985 10.2018 15.2276 12.2035 13.1815C14.2052 11.1355 16.9377 9.96842 19.7999 9.93707H20.0363V31.521Z" fill="white"/>
<path d="M20.0118 40.6938C16.0552 40.6962 12.1868 39.5249 8.89597 37.3282C5.60518 35.1314 3.0399 32.008 1.52468 28.353C0.00946262 24.698 -0.3876 20.6757 0.383727 16.7949C1.15505 12.9142 3.06011 9.34948 5.85787 6.55172C8.65563 3.75396 12.2204 1.8489 16.1011 1.07757C19.9818 0.306247 24.0041 0.70331 27.6591 2.21853C31.3141 3.73374 34.4376 6.29903 36.6343 9.58982C38.831 12.8806 40.0023 16.749 40 20.7057C39.9906 26.004 37.8817 31.0826 34.1352 34.8291C30.3888 38.5756 25.3101 40.6845 20.0118 40.6938ZM20.0118 3.89716C16.6874 3.89716 13.4377 4.88296 10.6735 6.72991C7.90937 8.57685 5.75498 11.202 4.48279 14.2733C3.21059 17.3447 2.87773 20.7243 3.52629 23.9848C4.17485 27.2454 5.7757 30.2404 8.12641 32.5911C10.4771 34.9418 13.4721 36.5426 16.7326 37.1912C19.9932 37.8398 23.3728 37.5069 26.4442 36.2347C29.5155 34.9625 32.1406 32.8081 33.9876 30.044C35.8345 27.2798 36.8203 24.0301 36.8203 20.7057C36.8141 16.2497 35.0412 11.978 31.8903 8.82717C28.7395 5.67632 24.4678 3.90342 20.0118 3.89716Z" fill="white" fill-opacity="0.2"/>
</svg>
