<svg width="61" height="61" viewBox="0 0 61 61" fill="none" xmlns="http://www.w3.org/2000/svg">
<circle cx="30.5" cy="30.6484" r="30" fill="#33CBCC" fill-opacity="0.1"/>
<path d="M15.9394 31.0533C16.3016 27.7627 17.7622 24.8025 19.9467 22.5468L22.4179 25.0179L23.5614 23.8745L21.1351 21.4484C23.4587 19.5275 26.3893 18.3142 29.5967 18.1387V22.1593H31.2137V18.1387C34.4211 18.3142 37.3518 19.5275 39.6754 21.4484L37.3472 23.7763L38.4905 24.9198L40.8638 22.5469C43.0483 24.8026 44.5088 27.7627 44.871 31.0533H41.4695V32.6703H44.959C44.9569 36.1797 43.7121 39.3975 41.6391 41.9095L38.8735 39.1441L37.7301 40.2875L40.5416 43.0989L40.5313 43.1089L41.6562 44.2706C44.6891 41.3337 46.576 37.2173 46.576 32.6616C46.576 23.7352 39.3357 16.4995 30.4052 16.4995C21.4747 16.4995 14.2344 23.7352 14.2344 32.6616C14.2344 37.0964 16.0226 41.1152 18.9156 44.0346L20.0642 42.8964C20.0591 42.8913 20.0541 42.8862 20.049 42.881L22.4788 40.4511L21.3354 39.3077L18.9758 41.6673C17.0203 39.1922 15.8534 36.068 15.8515 32.6703H19.1282V31.0533H15.9394Z" fill="#33CBCC" stroke="#33CBCC" stroke-width="0.7"/>
<path d="M24.0853 34.2541C23.9598 34.4886 23.9735 34.7736 24.1213 34.9954L24.9353 36.2166C25.7657 37.4622 27.0987 38.2059 28.5011 38.2059H29.7777V38.9281C29.7777 39.3269 30.1012 39.6504 30.5 39.6504C30.8988 39.6504 31.2222 39.3269 31.2222 38.9281V38.2059H32.4988C33.9013 38.2059 35.2343 37.4622 36.0647 36.2166L36.8787 34.9954C37.0265 34.7736 37.0402 34.4886 36.9147 34.2541C36.7887 34.0193 36.544 33.8726 36.2777 33.8726H34.603C33.4217 33.8726 32.2695 34.4062 31.4426 35.3361L31.2222 35.584V33.1504V32.3705C31.8434 32.1889 32.3055 31.5582 32.3055 30.8032C32.3055 29.9071 31.6577 29.1782 30.8611 29.1782L30.2013 29.1947C30.1815 29.1792 30.1389 29.1083 30.1389 28.9976C30.1389 28.8886 30.1805 28.8181 30.1406 28.8171H31.5833C31.9821 28.8171 32.3055 28.4936 32.3055 28.0948C32.3055 27.696 31.9821 27.3726 31.5833 27.3726H31.2222C31.2222 26.9738 30.8988 26.6504 30.5 26.6504C30.1012 26.6504 29.7777 26.9738 29.7777 27.3726V27.4302C29.1565 27.6119 28.6944 28.2426 28.6944 28.9976C28.6944 29.8937 29.3422 30.6226 30.1389 30.6226L30.7987 30.6061C30.8184 30.6215 30.8611 30.6924 30.8611 30.8032C30.8611 30.9121 30.8195 30.9826 30.8593 30.9837H29.4166C29.0178 30.9837 28.6944 31.3071 28.6944 31.7059C28.6944 32.1047 29.0178 32.4282 29.4166 32.4282H29.7777V33.1504V35.584L29.5573 35.336C28.7304 34.4062 27.5783 33.8726 26.3969 33.8726H24.7222C24.4559 33.8726 24.2112 34.0193 24.0853 34.2541ZM32.5224 36.296C33.0834 35.6647 33.8223 35.317 34.603 35.317H34.9285L34.863 35.4154C34.3008 36.2582 33.4171 36.7615 32.4988 36.7615H32.1084L32.5224 36.296ZM26.3969 35.317C27.1777 35.317 27.9164 35.6647 28.4775 36.296L28.8915 36.7615H28.5011C27.5828 36.7615 26.6991 36.2582 26.137 35.4154L26.0715 35.317H26.3969Z" fill="#33CBCC"/>
<path d="M33.6776 32.2824C33.8073 32.3801 33.9597 32.427 34.1102 32.427C34.3299 32.427 34.5468 32.3272 34.6886 32.1382C35.2545 31.3838 35.554 30.4853 35.554 29.5398C35.554 28.5919 35.2535 27.6916 34.6847 26.9362C34.4459 26.6185 33.9932 26.5532 33.6733 26.7937C33.3549 27.0335 33.291 27.4863 33.5308 27.8051C33.9095 28.308 34.1095 28.9079 34.1095 29.5398C34.1095 30.17 33.9103 30.7688 33.5333 31.2713C33.2938 31.5901 33.3584 32.0429 33.6776 32.2824ZM27.3211 26.7955C27.0023 26.5554 26.5498 26.6195 26.31 26.939C25.7426 27.6937 25.4429 28.593 25.4429 29.5398C25.4429 30.4867 25.7426 31.386 26.31 32.1406C26.4518 32.3296 26.6687 32.4291 26.888 32.4291C27.039 32.4291 27.1913 32.3818 27.3211 32.2841C27.6402 32.0447 27.7044 31.5919 27.4646 31.2731C27.0869 30.7706 26.8873 30.171 26.8873 29.5398C26.8873 28.9086 27.0869 28.3091 27.4646 27.8066C27.7044 27.4878 27.6402 27.0349 27.3211 26.7955Z" fill="#33CBCC"/>
<path d="M34.9711 41.2331L33.8107 39.703C33.7976 39.686 33.7809 39.6723 33.7618 39.6628C33.7428 39.6533 33.7218 39.6484 33.7006 39.6484H27.2994C27.2782 39.6484 27.2572 39.6533 27.2382 39.6628C27.2191 39.6723 27.2024 39.686 27.1893 39.703L26.0289 41.2331C26.0094 41.2591 25.9992 41.2911 26.0001 41.3237C26.0009 41.3564 26.0128 41.3878 26.0337 41.4126L30.3947 46.6026C30.4003 46.6098 30.4068 46.6164 30.4138 46.6221C30.4242 46.6305 30.4358 46.6371 30.4483 46.6416H30.4579C30.4706 46.6459 30.4838 46.6482 30.4971 46.6484C30.5108 46.6481 30.5243 46.6458 30.5373 46.6416H30.5469C30.5591 46.6368 30.5706 46.6306 30.5814 46.6231C30.589 46.6173 30.5958 46.6104 30.6015 46.6026L34.9663 41.4126C34.9872 41.3878 34.9991 41.3564 34.9999 41.3237C35.0008 41.2911 34.9906 41.2591 34.9711 41.2331ZM33.333 39.9322L31.9237 41.1259L30.8217 39.9322H33.333ZM30.5 39.9976L31.5905 41.1785H29.4248L30.5 39.9976ZM30.1812 39.9322L29.0936 41.1249L27.6843 39.9322H30.1812ZM27.3214 39.9927L28.7211 41.1785H26.4234L27.3214 39.9927ZM26.4416 41.4623H28.9997L30.2013 45.9375L26.4416 41.4623ZM30.5 45.9785L29.2879 41.4623H31.7293L30.5 45.9785ZM30.8006 45.9365L32.0165 41.4643H34.5584L30.8006 45.9365ZM32.2971 41.1785L33.6853 40.0024L34.5776 41.1785H32.2971Z" fill="#33CBCC"/>
</svg>
