<?xml version="1.0" standalone="no"?>
<!DOCTYPE svg PUBLIC "-//W3C//DTD SVG 20010904//EN"
 "http://www.w3.org/TR/2001/REC-SVG-20010904/DTD/svg10.dtd">
<svg version="1.0" xmlns="http://www.w3.org/2000/svg"
 width="1200.000000pt" height="1200.000000pt" viewBox="0 0 1200.000000 1200.000000"
 preserveAspectRatio="xMidYMid meet">
<metadata>
Created by potrace 1.14, written by Peter Selinger 2001-2017
</metadata>
<g transform="translate(0.000000,1200.000000) scale(0.100000,-0.100000)"
fill="#000000" stroke="none">
<path d="M3379 9416 c-2 -2 -36 -7 -75 -10 -39 -4 -82 -9 -95 -11 -13 -3 -41
-7 -64 -10 -22 -4 -89 -17 -149 -31 -402 -90 -806 -263 -1166 -500 -57 -38
-352 -275 -497 -400 -156 -134 -497 -610 -657 -916 -62 -118 -147 -329 -201
-498 -39 -123 -100 -359 -110 -425 -3 -22 -12 -78 -20 -125 -11 -67 -13 -168
-10 -470 4 -399 6 -435 31 -610 29 -193 94 -444 149 -575 7 -16 30 -70 50
-120 78 -186 201 -422 304 -580 40 -61 147 -211 161 -225 3 -3 27 -32 55 -65
96 -115 310 -337 410 -426 136 -120 368 -281 550 -382 362 -200 862 -376 1205
-423 19 -2 46 -7 60 -9 81 -15 188 -20 470 -20 441 0 485 8 880 155 151 56
276 103 277 104 1 1 -26 23 -60 48 -34 26 -93 75 -132 109 -68 61 -686 678
-1076 1075 -108 109 -380 382 -605 605 -465 461 -714 718 -714 736 0 12 60 73
578 580 l236 231 35 -14 c49 -20 114 -75 201 -168 155 -166 2287 -2297 2338
-2337 87 -67 166 -89 339 -93 209 -5 384 79 505 242 155 208 152 481 -6 702
-22 30 -551 566 -1176 1190 -625 624 -1165 1167 -1200 1205 -36 39 -82 89
-104 112 l-39 41 44 45 c24 24 208 211 409 416 200 204 369 371 375 371 6 0
65 -50 130 -112 186 -173 1822 -1815 2116 -2123 164 -171 266 -256 380 -318
229 -126 453 -108 660 52 109 84 180 199 215 346 48 203 5 374 -139 550 -42
51 -1969 1981 -2107 2110 -470 439 -861 681 -1320 819 -93 27 -201 56 -240 62
-14 3 -56 11 -95 19 -111 22 -213 36 -366 50 -36 4 -79 8 -95 11 -39 6 -639
16 -645 10z"/>
<path d="M7978 9415 c-2 -1 -48 -5 -103 -9 -131 -9 -163 -12 -305 -32 -142
-21 -345 -79 -458 -132 l-61 -28 46 -59 c51 -66 494 -509 869 -870 270 -260
896 -884 994 -990 138 -150 167 -182 216 -240 97 -116 155 -204 205 -312 27
-59 54 -117 59 -128 56 -120 122 -347 141 -485 12 -93 15 -272 5 -363 -9 -80
-43 -251 -62 -312 -8 -27 -17 -57 -19 -65 -2 -9 -19 -56 -38 -106 -208 -540
-669 -963 -1195 -1098 -80 -21 -166 -36 -297 -51 -96 -11 -89 -4 -102 -123
-22 -200 -83 -394 -194 -617 -84 -169 -165 -276 -350 -463 -137 -138 -160
-165 -148 -176 30 -29 272 -107 404 -131 200 -36 306 -43 575 -40 146 2 281 6
300 9 19 2 58 7 85 10 296 29 753 134 950 217 11 4 56 22 100 40 218 88 490
245 700 402 239 180 408 346 644 632 48 59 153 212 233 340 123 198 273 530
337 745 12 41 27 86 32 100 9 24 45 170 55 220 3 14 11 57 19 95 7 39 16 95
20 125 3 30 8 62 10 70 27 104 27 712 -1 845 -2 11 -6 40 -8 65 -4 38 -17 105
-51 264 -12 58 -16 75 -31 126 -31 107 -107 325 -115 334 -5 6 -9 16 -9 23 0
31 -181 401 -268 547 -90 153 -209 320 -309 438 -32 37 -241 246 -299 298
-287 260 -654 497 -994 643 -95 41 -286 112 -328 123 -235 58 -303 74 -332 79
-20 3 -45 7 -56 9 -11 2 -47 7 -79 11 -33 4 -69 10 -80 13 -21 5 -701 13 -707
7z"/>
</g>
</svg>
