<svg width="39" height="39" viewBox="0 0 57 56" fill="none" xmlns="http://www.w3.org/2000/svg">
<rect width="55.6059" height="55.6059" transform="translate(0.445312)" fill="white"/>
<path d="M51.9755 36.0142C52.323 35.3278 52.2535 35.0758 52.2535 32.8689C52.2535 32.2168 51.9944 31.5914 51.5333 31.1303C51.0722 30.6692 50.4468 30.4101 49.7947 30.4101H49.0388C56.5977 25.1015 52.8964 13.0333 43.5651 13.0333C41.952 13.0327 40.365 13.4404 38.9519 14.2184C37.5389 14.9964 36.3457 16.1194 35.4836 17.4828C34.6215 18.8462 34.1185 20.4056 34.0215 22.0158C33.9245 23.6259 34.2366 25.2344 34.9288 26.6915C37.0401 31.1486 40.4807 30.4101 35.5978 30.4101C34.9457 30.4101 34.3203 30.6692 33.8591 31.1303C33.398 31.5914 33.139 32.2168 33.139 32.8689C33.139 34.6066 32.8609 36.0663 34.2858 36.9699C34.1056 37.313 34.0102 37.6944 34.0078 38.082C34.0078 40.228 34.0078 40.3236 34.1294 40.8362C33.7952 40.8073 33.4586 40.8455 33.1393 40.9484C32.82 41.0514 32.5245 41.2171 32.2701 41.4357C32.0157 41.2171 31.7202 41.0514 31.4009 40.9484C31.0817 40.8455 30.745 40.8073 30.4108 40.8362C30.5672 40.3236 30.5324 40.2889 30.5324 38.082C30.53 37.6944 30.4347 37.313 30.2544 36.9699C31.6793 36.101 31.4013 34.6327 31.4013 32.8689C31.4013 32.2168 31.1422 31.5914 30.6811 31.1303C30.22 30.6692 29.5946 30.4101 28.9425 30.4101C28.4472 30.4101 28.7948 30.5231 28.7948 29.689C28.7948 27.4995 28.7948 27.4039 28.6557 26.8566C29.1896 26.7265 29.6644 26.4214 30.0046 25.9899C30.3448 25.5584 30.5306 25.0254 30.5324 24.4759V22.4428C30.5324 21.7907 30.2734 21.1653 29.8123 20.7042C29.3511 20.2431 28.7257 19.984 28.0736 19.984H26.4489C34.1121 14.632 30.2805 2.60718 20.9752 2.60718C19.3621 2.60657 17.7751 3.01426 16.362 3.79227C14.949 4.57028 13.7558 5.69328 12.8937 7.05668C12.0316 8.42007 11.5286 9.97948 11.4316 11.5896C11.3346 13.1998 11.6467 14.8083 12.3389 16.2654C14.3546 20.514 17.4129 19.984 13.8767 19.984C13.2246 19.984 12.5992 20.2431 12.1381 20.7042C11.677 21.1653 11.4179 21.7907 11.4179 22.4428C11.4179 24.6323 11.3745 24.7279 11.5569 25.2753C11.0231 25.4053 10.5482 25.7105 10.2081 26.142C9.86792 26.5735 9.68209 27.1064 9.68024 27.6559V29.689C9.68087 30.035 9.75403 30.3771 9.89499 30.6931C10.036 31.0092 10.2416 31.2922 10.4986 31.5238C10.7557 31.7555 11.0585 31.9307 11.3874 32.0382C11.7163 32.1457 12.0641 32.183 12.4084 32.1478C10.8841 32.1734 9.38744 32.5591 8.04056 33.2733C6.69368 33.9875 5.53475 35.01 4.65833 36.2574C4.54094 36.4466 4.50063 36.6736 4.54571 36.8916C4.5908 37.1096 4.71785 37.3019 4.90064 37.429C5.08343 37.5561 5.30802 37.6081 5.52807 37.5744C5.74812 37.5407 5.94684 37.4238 6.08323 37.2479C7.09231 35.7927 8.56542 34.7231 10.2615 34.2142C11.9576 33.7052 13.7762 33.787 15.4198 34.4462C17.0633 35.1053 18.4345 36.3028 19.3089 37.8427C20.1832 39.3826 20.5091 41.1737 20.233 42.9228C19.9569 44.672 19.0953 46.2757 17.7892 47.4714C16.4831 48.6672 14.8098 49.3842 13.0431 49.5051C11.2764 49.6261 9.52099 49.1438 8.06409 48.1372C6.6072 47.1306 5.5351 45.6593 5.02324 43.9641C4.95872 43.7428 4.80897 43.5563 4.60692 43.4455C4.40488 43.3347 4.16709 43.3087 3.94588 43.3732C3.72467 43.4378 3.53814 43.5875 3.42734 43.7896C3.31655 43.9916 3.29055 44.2294 3.35507 44.4506C3.97727 46.5498 5.30135 48.3717 7.10586 49.6116C8.91037 50.8515 11.0859 51.4342 13.2686 51.2623C13.4202 51.766 13.7305 52.2073 14.1532 52.5204C14.5759 52.8335 15.0884 53.0017 15.6144 53H29.8113C30.4634 53 31.0888 52.741 31.55 52.2798C32.0111 51.8187 32.2701 51.1933 32.2701 50.5412C32.2701 48.4386 32.3483 48.0997 31.9921 47.396C32.0903 47.3342 32.1833 47.2645 32.2701 47.1875C32.7116 47.5706 33.2756 47.7832 33.8601 47.787C34.3553 47.787 34.0078 47.674 34.0078 48.5081V50.5412C34.0078 51.1933 34.2669 51.8187 34.728 52.2798C35.1891 52.741 35.8145 53 36.4666 53H50.6635C51.3156 53 51.941 52.741 52.4022 52.2798C52.8633 51.8187 53.1223 51.1933 53.1223 50.5412V48.5081C53.1223 47.856 52.8633 47.2306 52.4022 46.7695C51.941 46.3083 51.3156 46.0493 50.6635 46.0493C50.1683 46.0493 50.5158 46.1622 50.5158 45.3281C50.5158 43.1821 50.5158 43.0865 50.3942 42.5739C50.7382 42.6078 51.0854 42.5695 51.4138 42.4615C51.7421 42.3535 52.0443 42.1782 52.3011 41.9468C52.5578 41.7154 52.7635 41.433 52.9049 41.1176C53.0463 40.8022 53.1204 40.4607 53.1223 40.1151C53.1223 38.3426 53.4004 36.9177 51.9755 36.0142ZM36.5014 25.9443C35.8765 24.5872 35.6419 23.083 35.8237 21.6001C37.0053 13.2418 48.3003 12.4338 50.9328 19.984C51.5795 21.8681 51.4828 23.928 50.6623 25.7432C49.8419 27.5584 48.3596 28.9921 46.518 29.7515C44.6765 30.511 42.6145 30.539 40.753 29.8298C38.8915 29.1207 37.3708 27.7278 36.5014 25.9356V25.9443ZM34.8767 32.895C34.8767 32.7038 34.9526 32.5203 35.0879 32.3851C35.2231 32.2498 35.4065 32.1739 35.5978 32.1739H49.7947C49.9859 32.1739 50.1693 32.2498 50.3046 32.3851C50.4398 32.5203 50.5158 32.7038 50.5158 32.895V34.9281C50.5158 35.1194 50.4398 35.3028 50.3046 35.438C50.1693 35.5733 49.9859 35.6492 49.7947 35.6492H35.5978C35.4065 35.6492 35.2231 35.5733 35.0879 35.438C34.9526 35.3028 34.8767 35.1194 34.8767 34.9281V32.895ZM31.4013 43.3211V45.3542C31.4013 45.5455 31.3253 45.7289 31.1901 45.8641C31.0548 45.9994 30.8714 46.0753 30.6801 46.0753H20.9752C21.5054 45.0611 21.8386 43.9555 21.957 42.8172C21.957 42.4957 21.0273 42.6 30.6454 42.6C30.7408 42.5953 30.8362 42.6097 30.9261 42.6422C31.0159 42.6747 31.0984 42.7248 31.1687 42.7894C31.239 42.8541 31.2958 42.9321 31.3357 43.0189C31.3757 43.1057 31.3979 43.1996 31.4013 43.2951V43.3211ZM22.0178 40.8362C21.8954 39.6218 21.5414 38.4421 20.9752 37.3609H28.0389C28.2301 37.3609 28.4135 37.4368 28.5488 37.5721C28.684 37.7073 28.76 37.8907 28.76 38.082V40.1151C28.76 40.3063 28.684 40.4898 28.5488 40.625C28.4135 40.7602 28.2301 40.8362 28.0389 40.8362H22.0178ZM13.9115 15.5182C13.2866 14.1611 13.052 12.6569 13.2338 11.174C14.4154 2.8157 25.7104 2.00768 28.343 9.55791C28.9896 11.442 28.8929 13.5019 28.0724 15.3171C27.252 17.1323 25.7697 18.566 23.9281 19.3254C22.0866 20.0849 20.0246 20.1129 18.1631 19.4037C16.3016 18.6946 14.781 17.3017 13.9115 15.5095V15.5182ZM13.1556 22.4689C13.1556 22.2776 13.2316 22.0942 13.3668 21.959C13.5021 21.8237 13.6855 21.7478 13.8767 21.7478H28.0736C28.2649 21.7478 28.4483 21.8237 28.5835 21.959C28.7188 22.0942 28.7948 22.2776 28.7948 22.4689V24.502C28.7948 24.6933 28.7188 24.8767 28.5835 25.0119C28.4483 25.1472 28.2649 25.2231 28.0736 25.2231H13.8767C13.6855 25.2231 13.5021 25.1472 13.3668 25.0119C13.2316 24.8767 13.1556 24.6933 13.1556 24.502V22.4689ZM11.4179 29.715V27.6559C11.4179 27.4646 11.4939 27.2812 11.6291 27.146C11.7644 27.0107 11.9478 26.9348 12.1391 26.9348H26.3359C26.5272 26.9348 26.7106 27.0107 26.8459 27.146C26.9811 27.2812 27.0571 27.4646 27.0571 27.6559V29.689C27.0571 29.8802 26.9811 30.0637 26.8459 30.1989C26.7106 30.3341 26.5272 30.4101 26.3359 30.4101H12.1391C11.9478 30.4101 11.7644 30.3341 11.6291 30.1989C11.4939 30.0637 11.4179 29.8802 11.4179 29.689V29.715ZM14.2938 32.3216C14.6066 32.0609 13.6508 32.1478 28.9425 32.1478C29.1337 32.1478 29.3171 32.2238 29.4524 32.359C29.5876 32.4943 29.6636 32.6777 29.6636 32.8689V34.902C29.6636 35.0933 29.5876 35.2767 29.4524 35.412C29.3171 35.5472 29.1337 35.6232 28.9425 35.6232H19.8718C18.4538 33.9065 16.4809 32.7388 14.2938 32.3216ZM30.5324 50.5412C30.5324 50.7324 30.4565 50.9159 30.3212 51.0511C30.186 51.1864 30.0026 51.2623 29.8113 51.2623C14.398 51.2623 15.3277 51.41 15.041 50.9148C16.9296 50.388 18.6121 49.2967 19.8631 47.787H29.8113C30.0026 47.787 30.186 47.8629 30.3212 47.9982C30.4565 48.1334 30.5324 48.3168 30.5324 48.5081V50.5412ZM51.3846 48.5081V50.5412C51.3846 50.7324 51.3087 50.9159 51.1734 51.0511C51.0382 51.1864 50.8548 51.2623 50.6635 51.2623H36.4666C36.2754 51.2623 36.092 51.1864 35.9567 51.0511C35.8215 50.9159 35.7455 50.7324 35.7455 50.5412V48.5081C35.7455 48.3168 35.8215 48.1334 35.9567 47.9982C36.092 47.8629 36.2754 47.787 36.4666 47.787H50.6635C50.8548 47.787 51.0382 47.8629 51.1734 47.9982C51.3087 48.1334 51.3846 48.3168 51.3846 48.5081ZM48.7781 43.2951V45.3281C48.7781 45.5194 48.7021 45.7028 48.5669 45.8381C48.4317 45.9733 48.2482 46.0493 48.057 46.0493H33.8601C33.6695 46.047 33.4874 45.9703 33.3527 45.8356C33.2179 45.7008 33.1412 45.5187 33.139 45.3281V43.2951C33.139 43.1038 33.2149 42.9204 33.3502 42.7851C33.4854 42.6499 33.6688 42.5739 33.8601 42.5739H48.057C48.2482 42.5739 48.4317 42.6499 48.5669 42.7851C48.7021 42.9204 48.7781 43.1038 48.7781 43.2951ZM51.3846 40.1151C51.3846 40.3063 51.3087 40.4898 51.1734 40.625C51.0382 40.7602 50.8548 40.8362 50.6635 40.8362H36.4666C36.2754 40.8362 36.092 40.7602 35.9567 40.625C35.8215 40.4898 35.7455 40.3063 35.7455 40.1151V38.082C35.7455 37.8907 35.8215 37.7073 35.9567 37.5721C36.092 37.4368 36.2754 37.3609 36.4666 37.3609H50.6635C50.8548 37.3609 51.0382 37.4368 51.1734 37.5721C51.3087 37.7073 51.3846 37.8907 51.3846 38.082V40.1151Z" fill="#4A7DE2"/>
<path d="M12.7223 43.4428H10.5502C10.3198 43.4428 10.0988 43.5343 9.93587 43.6973C9.77293 43.8602 9.6814 44.0812 9.6814 44.3116C9.6814 44.5421 9.77293 44.7631 9.93587 44.926C10.0988 45.0889 10.3198 45.1805 10.5502 45.1805H11.4191V46.0493C11.4191 46.2797 11.5106 46.5007 11.6736 46.6637C11.8365 46.8266 12.0575 46.9182 12.2879 46.9182C12.5184 46.9182 12.7393 46.8266 12.9023 46.6637C13.0652 46.5007 13.1568 46.2797 13.1568 46.0493V45.1805C13.7328 45.1229 14.2624 44.8388 14.6291 44.3907C14.9957 43.9426 15.1693 43.3672 15.1117 42.7912C15.0541 42.2151 14.77 41.6855 14.3219 41.3189C13.8738 40.9522 13.2984 40.7786 12.7223 40.8363C12.1489 40.8363 11.4191 40.9753 11.4191 40.4018C11.4191 40.2866 11.4648 40.1761 11.5463 40.0947C11.6278 40.0132 11.7383 39.9674 11.8535 39.9674H14.0256C14.256 39.9674 14.477 39.8759 14.64 39.7129C14.8029 39.55 14.8944 39.329 14.8944 39.0986C14.8944 38.8681 14.8029 38.6471 14.64 38.4842C14.477 38.3213 14.256 38.2297 14.0256 38.2297H13.1568V37.3609C13.1568 37.1305 13.0652 36.9095 12.9023 36.7465C12.7393 36.5836 12.5184 36.492 12.2879 36.492C12.0575 36.492 11.8365 36.5836 11.6736 36.7465C11.5106 36.9095 11.4191 37.1305 11.4191 37.3609V38.2297C10.843 38.2873 10.3134 38.5714 9.94679 39.0195C9.58017 39.4676 9.40658 40.043 9.46418 40.619C9.52179 41.1951 9.80589 41.7247 10.254 42.0913C10.7021 42.4579 11.2774 42.6315 11.8535 42.5739H12.7223C12.8376 42.5739 12.9481 42.6197 13.0295 42.7012C13.111 42.7826 13.1568 42.8931 13.1568 43.0084C13.1568 43.1236 13.111 43.2341 13.0295 43.3155C12.9481 43.397 12.8376 43.4428 12.7223 43.4428ZM4.74637 40.8363C4.76103 40.5871 4.79884 40.3399 4.85932 40.0977C4.90478 39.8778 4.8633 39.6488 4.74357 39.4587C4.62384 39.2687 4.43517 39.1324 4.21714 39.0785C3.99911 39.0245 3.76866 39.0571 3.57413 39.1694C3.37961 39.2817 3.23612 39.4649 3.17377 39.6807C3.0852 40.0606 3.02709 40.4471 3 40.8363C3 41.0678 3.092 41.2899 3.25575 41.4537C3.4195 41.6174 3.6416 41.7094 3.87319 41.7094C4.10477 41.7094 4.32687 41.6174 4.49062 41.4537C4.65438 41.2899 4.74637 41.0678 4.74637 40.8363ZM20.5419 10.4268H22.714C22.9445 10.4268 23.1655 10.3352 23.3284 10.1723C23.4913 10.0094 23.5829 9.78837 23.5829 9.55794C23.5829 9.32751 23.4913 9.10652 23.3284 8.94358C23.1655 8.78064 22.9445 8.6891 22.714 8.6891H21.8452V7.82026C21.8452 7.58983 21.7536 7.36883 21.5907 7.20589C21.4278 7.04295 21.2068 6.95142 20.9763 6.95142C20.7459 6.95142 20.5249 7.04295 20.362 7.20589C20.199 7.36883 20.1075 7.58983 20.1075 7.82026V8.73254C19.5796 8.83973 19.1104 9.13925 18.7909 9.57294C18.4714 10.0066 18.3245 10.5436 18.3786 11.0795C18.4328 11.6154 18.6841 12.1121 19.0839 12.4732C19.4836 12.8342 20.0033 13.0339 20.5419 13.0333C21.1154 13.0333 21.8452 12.8943 21.8452 13.4677C21.8452 13.5829 21.7994 13.6934 21.7179 13.7749C21.6365 13.8564 21.526 13.9022 21.4108 13.9022H19.2387C19.0082 13.9022 18.7872 13.9937 18.6243 14.1566C18.4614 14.3196 18.3698 14.5406 18.3698 14.771C18.3698 15.0014 18.4614 15.2224 18.6243 15.3854C18.7872 15.5483 19.0082 15.6398 19.2387 15.6398H20.1075V16.5087C20.1075 16.7391 20.199 16.9601 20.362 17.123C20.5249 17.286 20.7459 17.3775 20.9763 17.3775C21.2068 17.3775 21.4278 17.286 21.5907 17.123C21.7536 16.9601 21.8452 16.7391 21.8452 16.5087V15.6398C22.4213 15.5822 22.9509 15.2981 23.3175 14.8501C23.6841 14.402 23.8577 13.8266 23.8001 13.2505C23.7425 12.6744 23.4584 12.1448 23.0103 11.7782C22.5622 11.4116 21.9868 11.238 21.4108 11.2956H20.5419C20.4267 11.2956 20.3162 11.2499 20.2347 11.1684C20.1533 11.0869 20.1075 10.9764 20.1075 10.8612C20.1075 10.746 20.1533 10.6355 20.2347 10.554C20.3162 10.4726 20.4267 10.4268 20.5419 10.4268ZM43.1318 20.8529H45.3039C45.5343 20.8529 45.7553 20.7614 45.9183 20.5984C46.0812 20.4355 46.1728 20.2145 46.1728 19.984C46.1728 19.7536 46.0812 19.5326 45.9183 19.3697C45.7553 19.2067 45.5343 19.1152 45.3039 19.1152H44.4351V18.2464C44.4351 18.0159 44.3435 17.7949 44.1806 17.632C44.0177 17.4691 43.7967 17.3775 43.5662 17.3775C43.3358 17.3775 43.1148 17.4691 42.9519 17.632C42.7889 17.7949 42.6974 18.0159 42.6974 18.2464V19.1586C42.1695 19.2658 41.7003 19.5654 41.3808 19.999C41.0613 20.4327 40.9144 20.9697 40.9685 21.5056C41.0227 22.0415 41.274 22.5382 41.6738 22.8993C42.0735 23.2603 42.5932 23.46 43.1318 23.4594C43.7052 23.4594 44.4351 23.3204 44.4351 23.8938C44.4351 24.0091 44.3893 24.1195 44.3078 24.201C44.2264 24.2825 44.1159 24.3283 44.0007 24.3283H41.8285C41.5981 24.3283 41.3771 24.4198 41.2142 24.5827C41.0512 24.7457 40.9597 24.9667 40.9597 25.1971C40.9597 25.4275 41.0512 25.6485 41.2142 25.8115C41.3771 25.9744 41.5981 26.0659 41.8285 26.0659H42.6974V26.9348C42.6974 27.1652 42.7889 27.3862 42.9519 27.5491C43.1148 27.7121 43.3358 27.8036 43.5662 27.8036C43.7967 27.8036 44.0177 27.7121 44.1806 27.5491C44.3435 27.3862 44.4351 27.1652 44.4351 26.9348V26.0659C45.0112 26.0083 45.5407 25.7242 45.9074 25.2762C46.274 24.8281 46.4476 24.2527 46.39 23.6766C46.3324 23.1005 46.0483 22.5709 45.6002 22.2043C45.1521 21.8377 44.5767 21.6641 44.0007 21.7217H43.1318C43.0166 21.7217 42.9061 21.676 42.8246 21.5945C42.7432 21.513 42.6974 21.4025 42.6974 21.2873C42.6974 21.1721 42.7432 21.0616 42.8246 20.9801C42.9061 20.8987 43.0166 20.8529 43.1318 20.8529Z" fill="#4A7DE2"/>
</svg>
