<svg width="40" height="35" viewBox="0 0 47 39" fill="none" xmlns="http://www.w3.org/2000/svg">
<path d="M10.3254 34.914C10.9241 34.914 11.3232 34.5148 11.3232 33.9162V33.7166C12.5206 33.3175 13.3188 32.2199 13.3188 30.9228C13.3188 29.2265 12.0217 27.9294 10.3254 27.9294C9.82652 27.9294 9.32762 27.4305 9.32762 26.9316C9.32762 26.4327 9.72674 25.9338 10.3254 25.9338C10.8243 25.9338 11.3232 26.4327 11.3232 26.9316C11.3232 27.5303 11.7223 27.9294 12.321 27.9294C12.9197 27.9294 13.3188 27.5303 13.3188 26.9316C13.3188 25.6345 12.5206 24.5369 11.3232 24.1378V23.9382C11.3232 23.3395 10.9241 22.9404 10.3254 22.9404C9.72674 22.9404 9.32762 23.3395 9.32762 23.9382V24.1378C8.13027 24.5369 7.33203 25.6345 7.33203 26.9316C7.33203 28.6279 8.62916 29.925 10.3254 29.925C10.8243 29.925 11.3232 30.4239 11.3232 30.9228C11.3232 31.4217 10.9241 31.9206 10.3254 31.9206C9.82652 31.9206 9.32762 31.4217 9.32762 30.9228C9.32762 30.3241 8.9285 29.925 8.32983 29.925C7.73115 29.925 7.33203 30.3241 7.33203 30.9228C7.33203 32.2199 8.13027 33.3175 9.32762 33.7166V33.9162C9.32762 34.5148 9.82652 34.914 10.3254 34.914Z" fill="#4A7DE2"/>
<path d="M45.2484 14.9578H26.0907C25.991 14.5586 25.7914 14.2593 25.4921 13.96C25.991 13.4611 26.2903 12.7626 26.2903 11.9644V9.96879C26.2903 9.17056 25.991 8.4721 25.4921 7.97321C25.991 7.47431 26.2903 6.77585 26.2903 5.97762V3.98203C26.2903 2.28578 24.9932 0.988647 23.2969 0.988647H11.3234C9.62714 0.988647 8.33001 2.28578 8.33001 3.98203V5.97762C8.33001 6.77585 8.62935 7.47431 9.12824 7.97321C8.62935 8.4721 8.33001 9.17056 8.33001 9.96879V11.9644C8.33001 12.7626 8.62935 13.4611 9.12824 13.96C8.62935 14.4589 8.33001 15.1573 8.33001 15.9556V17.9511C8.33001 18.3503 8.42979 18.7494 8.52957 19.1485C3.93972 19.9467 0.347656 24.0377 0.347656 28.9269C0.347656 34.4147 4.83773 38.9048 10.3256 38.9048H45.2484C46.9446 38.9048 48.2418 37.6077 48.2418 35.9114V17.9511C48.2418 16.2549 46.9446 14.9578 45.2484 14.9578ZM26.0907 32.9181C25.991 32.7185 25.991 32.6187 25.8912 32.5189C26.2903 32.2196 26.6894 31.9203 26.889 31.4214C29.0841 31.122 30.7804 29.2262 30.7804 27.0311C30.7804 24.5366 28.7848 22.541 26.2903 22.541V21.9423C26.2903 21.643 26.1905 21.2439 26.0907 20.9445H39.3614C39.7605 22.3414 40.8581 23.439 42.255 23.8381V30.0245C40.8581 30.4236 39.7605 31.5211 39.3614 32.9181H26.0907ZM10.3256 15.9556C10.3256 15.3569 10.7247 14.9578 11.3234 14.9578H23.2969C23.8956 14.9578 24.2947 15.3569 24.2947 15.9556V17.9511C24.2947 18.5498 23.8956 18.9489 23.2969 18.9489H11.3234C10.7247 18.9489 10.3256 18.5498 10.3256 17.9511V15.9556ZM10.3256 11.9644V9.96879C10.3256 9.4699 10.7247 8.971 11.3234 8.971H23.2969C23.7958 8.971 24.2947 9.4699 24.2947 9.96879V11.9644C24.2947 12.5631 23.8956 12.9622 23.2969 12.9622H11.3234C10.7247 12.9622 10.3256 12.5631 10.3256 11.9644ZM25.8912 25.4346C26.0907 25.1353 26.1905 24.8359 26.2903 24.4368H26.3901C27.787 24.4368 28.8846 25.5344 28.8846 26.9313C28.8846 27.9291 28.2859 28.8271 27.3879 29.2262V27.9291C27.2881 26.8315 26.6894 25.9335 25.8912 25.4346ZM23.2969 20.9445C23.7958 20.9445 24.2947 21.4434 24.2947 21.9423V23.9379C24.2947 24.5366 23.8956 24.9357 23.2969 24.9357H19.5053C18.8068 23.3392 17.7093 21.9423 16.3124 20.9445H23.2969ZM23.2969 30.9225H20.104C20.2038 30.3238 20.3035 29.6253 20.3035 28.9269C20.3035 28.2284 20.2038 27.53 20.104 26.9313H24.2947C24.8934 26.9313 25.2925 27.3304 25.2925 27.9291V29.9247C25.2925 30.5233 24.8934 30.9225 24.2947 30.9225H23.2969ZM10.3256 3.98203C10.3256 3.38335 10.7247 2.98424 11.3234 2.98424H23.2969C23.8956 2.98424 24.2947 3.38335 24.2947 3.98203V5.97762C24.2947 6.47651 23.8956 6.97541 23.2969 6.97541H11.3234C10.8245 6.97541 10.3256 6.47651 10.3256 5.97762V3.98203ZM2.34324 28.9269C2.34324 24.5366 5.9353 20.9445 10.3256 20.9445C14.7159 20.9445 18.308 24.5366 18.308 28.9269C18.308 33.3172 14.7159 36.9092 10.3256 36.9092C5.9353 36.9092 2.34324 33.3172 2.34324 28.9269ZM16.3124 36.9092C17.7093 35.9114 18.8068 34.5145 19.5053 32.9181H23.2969C23.7958 32.9181 24.2947 33.417 24.2947 33.9158V35.9114C24.2947 36.5101 23.8956 36.9092 23.2969 36.9092H16.3124ZM46.2462 35.9114C46.2462 36.5101 45.8471 36.9092 45.2484 36.9092H26.0907C26.1905 36.6099 26.2903 36.3106 26.2903 35.9114V34.9136H40.2594C40.5588 34.9136 40.7583 34.8139 40.9579 34.6143C41.1574 34.4147 41.2572 34.2152 41.2572 33.9158C41.2572 32.8183 42.1552 31.9203 43.2528 31.9203C43.8515 31.9203 44.2506 31.5211 44.2506 30.9225V22.9401C44.2506 22.6408 44.1508 22.4412 43.9513 22.2417C43.7517 22.0421 43.5521 21.9423 43.2528 21.9423C42.1552 21.9423 41.2572 21.0443 41.2572 19.9467C41.2572 19.3481 40.8581 18.9489 40.2594 18.9489H26.0907C26.1905 18.6496 26.2903 18.2505 26.2903 17.9511V16.9534H45.2484C45.8471 16.9534 46.2462 17.3525 46.2462 17.9511V35.9114Z" fill="#4A7DE2"/>
<path d="M38.2651 28.9269C39.3673 28.9269 40.2607 28.0334 40.2607 26.9313C40.2607 25.8292 39.3673 24.9357 38.2651 24.9357C37.163 24.9357 36.2695 25.8292 36.2695 26.9313C36.2695 28.0334 37.163 28.9269 38.2651 28.9269Z" fill="#4A7DE2"/>
</svg>
